<?xml version="1.0" encoding="utf-8"?>
<!-- Generator: Adobe Illustrator 27.5.0, SVG Export Plug-In . SVG Version: 6.00 Build 0)  -->
<svg version="1.1" xmlns="http://www.w3.org/2000/svg" xmlns:xlink="http://www.w3.org/1999/xlink" x="0px" y="0px"
	 viewBox="0 0 500 500" style="enable-background:new 0 0 500 500;" xml:space="preserve">
<g id="BACKGROUND">
	<g>
		<rect style="fill:#FFFFFF;" width="500" height="500"/>
	</g>
</g>
<g id="OBJECTS">
	<path d="M104.224,251.81c4.33-0.391,8.914-0.446,13.215-1.29c0.061,4.704,0.721,9.465,1.834,14.019
		c0.28,1.146,1.649,1.327,2.451,0.647c6.362-5.4,11.184-12.816,15.88-19.632c2.238-3.248,4.401-6.547,6.629-9.802
		c0.738-1.078,1.877-2.183,2.058-3.482c0.171-0.405,0.155-0.908-0.173-1.328c-4.237-5.416-10.45-10.134-15.443-14.89
		c-4.536-4.32-9.108-8.717-14.389-12.124c-0.932-0.601-1.949,0.388-1.752,1.347c0.831,4.042,0.909,8.126,1.467,12.179
		c-14.112,0.582-28.213,1.376-42.322,2.028c-7.564,0.35-15.131,0.641-22.701,0.813c-6.598,0.15-23.847-0.705-21.406,1.911
		c2.7,2.894,5.05,6.086,7.652,9.064c-3.518,1.862-6.195,4.323-8.513,7.733c-0.434,0.639-0.13,1.624,0.521,1.986
		c3.134,1.74,6.267,3.478,9.402,5.215c-3.131,2.467-6.413,4.737-9.477,7.291c-1.052,0.876-0.144,2.531,1.062,2.563
		c16.596,0.441,33.282-0.946,49.815-2.216C88.101,253.222,96.164,252.537,104.224,251.81z M34.449,253.101
		c2.636-2.013,5.336-3.943,7.88-6.075c0.729-0.611,0.482-1.897-0.3-2.327c-3.311-1.82-6.624-3.635-9.937-5.451
		c2.096-2.734,4.686-4.872,7.804-6.481c0.731-0.377,0.809-1.438,0.257-1.99c-2.635-2.628-5.041-5.462-7.612-8.146
		c5.99,0.835,12.492,0.218,18.436,0.144c7.569-0.095,15.137-0.31,22.701-0.581c14.427-0.518,28.841-1.331,43.266-1.904
		c1.519-0.06,0.797-9.334,0.352-12.637c4.707,3.684,8.957,7.954,13.202,12.143c3.897,3.845,7.939,8.898,12.611,12.041
		c-2.73,2.486-5.574,8.504-6.687,10.147c-4.488,6.626-9.027,13.782-14.872,19.379c-0.865-3.853-2.019-13.674-3.139-13.728
		c-4.839-0.23-9.9,0.735-14.719,1.169c-8.111,0.73-16.226,1.417-24.346,2.037C64.446,251.979,49.418,253.194,34.449,253.101z"/>
	<path d="M146.737,66.96c0.046-0.03,0.093-0.059,0.139-0.089c27.469-4.177,55.648-6.954,83.486-5.844
		c-3.803,4.674-6.859,9.93-10.854,14.471c-1.169,1.329-0.012,3.091,1.643,2.823c18.102-2.924,35.706-8.2,52.684-15.083
		c1.22-0.495,1.674-1.834,0.741-2.806c-14.926-15.553-29.883-21.889-46.881-28.51c-1.512-0.589-2.402,1.282-1.881,2.446
		c1.951,4.356,4.562,8.385,7.78,11.888c-30.23-2.213-62.742,1.045-87.554,19.515C145.349,66.287,145.981,67.456,146.737,66.96z
		 M212.01,48.916c8.295,0.042,16.667,0.826,24.957,0.473c1.385,0.481,2.908-1.314,1.624-2.507
		c-3.205-2.976-5.807-6.442-7.914-10.225c14.512,5.776,29.305,12.576,39.879,24.275c-14.79,5.836-30.041,10.426-45.679,13.307
		c3.432-4.448,6.48-9.186,10.049-13.543c0.845-1.032,0.363-2.784-1.146-2.766c-28.363,0.337-56.34,1.899-84.217,7.236
		c12.219-7.534,24.984-12.331,39.364-14.357C196.557,49.736,204.296,48.876,212.01,48.916z"/>
	<path d="M265.201,179.69c-6.647,9.58-21.428,7.723-29.424,1.189c1.814-2.171,3.387-4.573,4.632-7.189
		c2.699-5.672,4.38-12.837,2.496-19.013c-1.512-4.957-6.235-9.121-11.712-8.007c-5.471,1.112-7.725,7.897-8.221,12.752
		c-0.656,6.425,1.576,12.919,5.28,18.111c0.902,1.264,1.916,2.45,3.014,3.553c-0.183,0.185-0.356,0.381-0.544,0.562
		c-8.112,7.803-19.755,10.212-30.337,6.399c-1.198-0.432-2.454-1.047-3.722-1.799c7.752-8.054,13.621-22.258,5.885-31.519
		c-8.525-10.206-22.504,0.422-22.564,11.22c-0.048,8.725,5.046,16.093,12.012,20.896c-8.651,6.565-20.971,8.848-28.966-0.189
		c-10.648-12.037,0.052-28.641,7.672-38.844c0.537-0.719-0.699-1.684-1.254-0.967c-8.26,10.676-18.063,25.763-9.66,39.263
		c7.294,11.718,23.694,10.627,33.559,3.12c0.355-0.27,0.708-0.56,1.061-0.859c3.732,2.139,7.853,3.581,11.936,4.164
		c10.241,1.464,20.208-2.302,27.279-9.316c8.606,6.964,21.045,9.121,30.555,2.091c6.144-4.542,6.284-10.589,6.278-17.646
		c-0.008-9.457,6.857-9.405,14.047-9.312c5.007,0.065,10.013,0.152,15.02,0.233c-2.835,3.199-5.9,6.641-7.524,10.282
		c-0.616,1.38,0.869,2.529,2.054,1.585c3.806-3.035,7.863-7.936,10.855-11.861c0.766-1.615,0.337-1.949-1.495-3.609
		c-4.165-3.554-7.919-7.344-11.814-11.204c-0.828-0.821-2.29,0.243-1.643,1.268c2.376,3.763,5.514,6.917,8.789,9.908
		c-4.747,0.004-9.494,0.013-14.241,0.001c-4.188-0.01-9.309-0.536-13.022,1.921C263.598,162.085,269.91,172.904,265.201,179.69z
		 M187.932,155.437c6.216-4.176,13.38-1.001,14.973,6.185c1.329,5.99-0.702,12.585-3.881,17.661
		c-1.232,1.968-2.799,3.827-4.592,5.504C184.757,177.836,175.909,163.514,187.932,155.437z M228.114,153.295
		c4.839-7.47,11.199-1.274,12.067,4.515c0.426,2.839,0.09,5.681-0.58,8.461c-1.086,4.513-3.249,8.777-6.172,12.401
		C227.421,172.227,223.001,161.189,228.114,153.295z"/>
	<path d="M155.489,221.171c12.721-1.025,25.58-2.84,38.264-0.404c0.948,0.182,2.325,0.476,3.886,0.884
		c-2.005,1.142-3.8,2.462-5.216,4.013c-3.369,3.69-4.129,10.107,0.839,12.817c5.002,2.728,14.763,1.394,18.553-2.963
		c4.242-4.877,1.538-10.233-3.416-13.063c-0.545-0.311-1.098-0.605-1.656-0.888c20.834-7.956,44.806-5.973,66.572-4.166
		c-0.106,0.137-0.226,0.312-0.359,0.557c-1.905,3.508-4.001,6.316-5.196,10.232c-0.335,1.097,0.756,2.097,1.818,1.818
		c7.866-2.065,14.898-5.943,20.971-11.336c0.756-0.671,0.499-1.938-0.312-2.422c-3.892-2.321-7.983-4.239-12.073-6.179
		c-3.602-1.709-7.3-4.287-11.158-5.236c-1.137-0.28-1.895,1.077-1.12,1.924c0.487,0.532,1.051,1.003,1.644,1.448
		c1.218,1.445,2.435,2.89,3.653,4.335c0.375,0.445,0.821,0.902,1.23,1.386c-18.693-1.501-37.824-2.755-56.252,1.471
		c-4.174,0.957-9.401,2.201-14.146,4.143c-14.564-5.201-32.275-2.753-46.75-0.043C154.328,219.674,154.531,221.248,155.489,221.171z
		 M276.574,212.79c3.438,1.611,6.871,3.222,10.194,5.054c-4.607,3.791-9.702,6.59-15.337,8.495c1.196-3.314,2.942-6.21,5.267-9.033
		c0.398-0.483,0.492-1.186,0-1.661c-1.593-1.541-3.105-3.174-4.59-4.834C273.634,211.508,275.18,212.137,276.574,212.79z
		 M208.85,233.581c-2.146,2.468-8.472,3.525-11.758,2.518c-7.289-2.233-2.311-8.808,2.218-11.191
		c1.119-0.589,2.253-1.132,3.395-1.653C208.202,225.365,213.05,228.75,208.85,233.581z"/>
	<path d="M303.419,73.933c1.311,0.443,1.989-1.454,0.908-2.154c-7.553-4.89-15.578-12.288-12.924-22.251
		c3.257-12.224,16.887-18.305,28.523-15.006c13.825,3.919,20.055,19.399,14.96,32.261c-0.307,0.775,0.192,1.972,0.947,2.326
		c1.628,0.765,3.772,0.625,5.525,0.722c4.395,0.244,8.799,0.348,13.198,0.46c7.821,0.2,15.645,0.322,23.47,0.384
		c-2.611,1.751-5.311,3.432-7.773,5.381c-1.797,1.423,0.516,4.306,2.426,3.144c2.951-1.796,5.706-3.997,8.523-5.996
		c1.121-0.795,4.812-3.122,4.807-4.182c0.268-2.726-10.215-8.42-14.653-11.232c-1.602-1.015-2.869,1.39-1.447,2.476
		c2.784,2.127,5.625,4.179,8.474,6.219c-6.976-0.045-13.952-0.139-20.926-0.287c-4.192-0.089-8.384-0.189-12.574-0.347
		c-1.163-0.044-3.601,0.046-5.309-0.046c5.305-17.339-7.38-36.353-26.26-36.209c-12.227,0.094-24.502,8.55-26.13,21.302
		C285.854,61.306,293.952,70.737,303.419,73.933z"/>
	<path d="M415.453,148.536c-14.459-0.185-29.01,1.046-43.465,1.002c-11.072-0.034-23.516-0.62-34.092,3.236
		c-6.188,2.256-11.085,7.966-6.947,14.502c4.253,6.719,14.706,7.701,21.82,8.198c10.262,0.716,20.384-0.288,30.588-1.174
		c1.246-0.108,1.285-1.933,0-1.968c-9.594-0.262-19.186,0.437-28.773-0.275c-4.376-0.325-27.934-3.264-20.29-12.842
		c3.165-3.965,11.043-4.559,15.613-5.067c6.415-0.713,12.895-0.802,19.343-0.812c15.931-0.024,31.912-0.22,47.837-0.892
		c-3.338,3.62-6.865,7.231-9.421,11.327c-1.074,1.72,1.5,3.8,2.858,2.205c3.836-4.504,6.155-6.907,10.471-12.667
		c1.186-1.929,1.775-3.51,0.297-4.596c-5.217-3.223-9.475-7.555-14.119-11.52c-1.343-1.147-3.242,0.678-1.964,1.963
		C408.473,142.436,411.811,145.682,415.453,148.536z"/>
	<path d="M396.713,233.272c-6.08-8.118-15.928-12.682-26.055-12.178c-10.394,0.518-19.391,6.385-25.314,14.762
		c-7.008,9.911-7.443,21.73-6.283,33.446c0.068,0.686,0.668,0.951,1.148,0.798c4.546-0.286,9.051-0.449,13.608-0.261
		c0.776,0.032,1.58-0.723,1.519-1.519c-0.897-11.742,1.176-30.64,16.633-31.634c15.917-1.024,14.319,17.851,14.838,28.933
		c-4.129,0.43-7.903,0.598-12.04,0.828c-2.402,0.133-1.83,2.953-0.999,3.736c4.877,4.595,9.809,9.136,14.778,13.633
		c1.852,1.676,6.191,7.227,8.999,7.321c2.67,0.089,5.73-5.677,7.102-7.4c4.347-5.46,8.653-10.953,12.958-16.446
		c0.899-1.146,0.359-2.774-1.188-2.868c-4.092-0.248-8.193-0.171-12.29-0.264C404.115,253.687,403.106,241.809,396.713,233.272z
		 M397.59,288.07c-6.006-4.538-15.766-15.715-19.287-18.953c3.191-0.542,11.63-0.126,11.546-1.536
		c-0.766-12.862,0.982-35.314-17.88-34.191c-16.644,0.991-21.021,19.867-19.815,33.527c-3.785,0.259-7.527,0.716-11.261,1.395
		c0.781-9.778-0.177-19.429,5.151-28.225c5.31-8.768,14.139-15.352,24.613-15.804c10.109-0.436,19.601,4.643,24.814,13.309
		c4.916,8.173,4.915,18.899,5.199,28.179c0.035,1.152,0.962,1.703,1.846,1.659c3.511,0.28,7.034,0.182,10.553,0.238
		C410.134,271.419,399.319,285.247,397.59,288.07z"/>
	<path d="M20.258,158.312c28.327-2.626,58.716-4.469,84.029,10.293c-9.076,1.38-19.498,11.27-10.886,18.7
		c5.184,4.473,12.989,3.941,19.235,2.828c10.17-1.811,19.712-6.703,30.171-6.822c0.897-0.01,1.765-0.78,1.72-1.72
		c-0.821-17.316,5.576-42.611-11.3-54.784c-4.619-3.332-12.164-4.124-15.911,0.682c-3.283,4.212-3.612,9.889-2.413,15.148
		c-12.442-10.771-29.026-14.6-45.429-15.963c-15.868-1.319-33.355-1.318-48.825,3.128c-0.566-0.292-1.383-0.027-1.445,0.829
		c-0.632,8.701-0.387,17.498-0.409,26.218C18.792,157.585,19.468,158.385,20.258,158.312z M21.702,148.807
		c1.134,1.002,2.3,1.967,3.523,2.866c1.235,0.908,2.65,2.092,4.153,2.845c-2.566,0.219-5.121,0.462-7.664,0.719
		C21.706,153.096,21.705,150.952,21.702,148.807z M65.955,129.223c19.072,1.349,38.759,5.633,51.715,20.746
		c0.06,0.11,0.116,0.226,0.177,0.335c1.104,1.957,3.993,0.231,2.994-1.75c-2.456-4.873-6.408-19.699,2.712-20.855
		c7.829-0.992,13.231,7.381,15.541,13.682c4.482,12.226,1.545,25.955,1.94,38.721c-10.001,1.447-19.255,5.407-29.178,7.205
		c-4.556,0.825-14.478,2.042-17.46-2.957c-1.437-2.409-0.902-6.168,0.914-8.127c1.087-1.173,2.418-2.214,3.77-3.062
		c2.327-1.46,5.319-2.73,8.19-2.72c0.381,0.246,0.765,0.483,1.144,0.738c1.766,1.188,3.445-1.688,1.668-2.854
		c-1.101-0.722-2.215-1.4-3.334-2.059c-0.806-5.268-2.967-10.637-4.23-15.781c-0.24-0.977-1.665-0.554-1.489,0.41
		c0.8,4.387,1.401,9.352,2.856,13.764c-1.494-0.799-3.002-1.552-4.525-2.25c-0.496-2.241-1.775-4.374-2.704-6.443
		c-1.323-2.947-2.671-5.883-4.007-8.824c-0.377-0.829-1.817-0.235-1.486,0.626c1.159,3.016,2.308,6.036,3.48,9.046
		c0.526,1.351,0.974,2.831,1.554,4.228c-1.441-0.59-2.891-1.149-4.354-1.659c-1.575-5.898-4.71-11.604-7.559-16.921
		c-0.433-0.808-1.602-0.098-1.216,0.711c2.38,4.997,4.025,10.232,6.078,15.318c-1.902-0.597-3.822-1.131-5.755-1.608
		c-1.39-6.357-6.097-12.529-9.889-17.539c-0.707-0.934-2.302-0.073-1.614,0.943c1.956,2.891,3.841,5.817,5.432,8.928
		c1.134,2.216,1.916,4.673,2.955,6.955c-2.077-0.444-4.17-0.823-6.274-1.147c-2.81-6.752-7.948-13.057-12.51-18.665
		c-0.432-0.531-1.374,0.184-0.957,0.739c2.292,3.049,4.471,6.178,6.465,9.432c1.614,2.633,2.938,5.469,4.499,8.134
		c-2.425-0.322-4.864-0.574-7.314-0.761c-1.382-2.662-3.716-4.99-5.537-7.306c-2.671-3.398-5.327-6.808-7.989-10.213
		c-0.46-0.588-1.481,0.191-1.042,0.804c2.517,3.517,5.039,7.03,7.547,10.554c1.37,1.925,2.63,4.109,4.174,5.971
		c-2.709-0.154-5.428-0.234-8.153-0.255c-2.006-2.223-4.807-4.084-6.894-6.048c-2.989-2.814-5.848-5.776-8.649-8.775
		c-0.574-0.614-1.392,0.274-0.9,0.9c2.67,3.404,5.532,6.604,8.592,9.662c1.32,1.319,2.731,2.893,4.262,4.264
		c-2.417,0.026-4.837,0.098-7.256,0.203c-1.581-2.197-4.36-3.804-6.46-5.403c-2.975-2.266-6-4.671-9.308-6.43
		c-0.55-0.292-1.185,0.441-0.689,0.893c2.77,2.533,5.904,4.697,8.797,7.093c1.467,1.215,2.904,2.765,4.483,4.005
		c-2.304,0.128-4.606,0.283-6.902,0.462c-0.023-0.046-0.048-0.091-0.082-0.13c-1.396-1.621-4.005-2.428-5.827-3.577
		c-1.62-1.022-3.163-2.148-4.649-3.35c-0.015-5.379-0.092-10.763-0.487-16.111C35.674,128.146,51.324,128.188,65.955,129.223z"/>
	<path d="M48.142,87.787c8.487,0.579,17.026,0.305,25.455-0.843c17.937-2.444,35.429-8.619,50.429-18.841
		c0.009-0.006,0.013-0.015,0.022-0.022c0.525,3.986,1.592,7.745,3.252,11.468c0.507,1.136,2.36,1.053,2.893,0
		c7.223-14.263,14.669-28.416,21.669-42.79c1.904-3.909-1.116-3.93-1.947-3.29c-0.407,0.313-18.106,0.743-26.46-0.755
		c-6.174-1.107-12.291-3.51-18.536-1.668c-0.826,0.244-1.35,1.505-0.56,2.121c3.396,2.649,6.79,5.3,10.214,7.911
		c-27.719,12.07-56.062,6.028-84.727,0.939c-2.265-0.58-4.826-0.681-4.258,0.803c4.967,12.98,2.495,20.94-1.339,33.549
		c-0.871,1.847-2.057,5.34-1.787,5.901C22.318,82.817,40.711,87.28,48.142,87.787z M27.621,73.56
		c1.506,1.87,2.976,3.769,4.356,5.737c0.675,0.963,1.29,2.022,1.929,3.065c-3.019-0.671-4.735-0.661-9.137-1.817
		C25.829,78.286,26.788,75.949,27.621,73.56z M39.054,65.676c2.789,4.298,5.654,8.55,8.715,12.661
		c1.42,1.908,2.855,4.163,4.493,6.137c-1.071-0.04-2.142-0.093-3.213-0.161c-2.306-2.85-5.41-5.283-7.831-7.969
		c-3.276-3.634-6.216-7.513-9.111-11.447C34.411,65.194,36.726,65.457,39.054,65.676z M29.922,65.126
		c2.556,4.124,5.495,8.006,8.624,11.712c1.893,2.243,3.951,4.921,6.264,7.137c-2.832-0.28-5.652-0.67-8.457-1.153
		c-1.053-1.669-2.416-3.231-3.558-4.715c-1.519-1.975-3.126-3.875-4.772-5.742C28.801,69.99,29.448,67.571,29.922,65.126z
		 M55.592,84.552c-1.627-2.445-3.866-4.622-5.641-6.874c-3.058-3.881-6.032-7.821-8.917-11.83c2.435,0.204,4.881,0.363,7.333,0.477
		c0.019,0.085,0.059,0.172,0.124,0.258c3.057,4.038,6.262,7.972,9.361,11.979c1.506,1.947,3.063,4.069,4.863,5.866
		C60.342,84.536,57.967,84.578,55.592,84.552z M73.138,83.549c-2.403,0.301-4.815,0.528-7.231,0.697
		c-2.057-2.558-4.522-4.855-6.583-7.412c-2.879-3.571-5.702-7.186-8.965-10.416c2.813,0.102,5.634,0.138,8.458,0.116
		c2.954,2.826,5.863,5.712,8.621,8.727c2.318,2.534,4.377,5.604,6.791,8.136C73.865,83.445,73.503,83.503,73.138,83.549z
		 M108.893,58.702c1.927,1.885,3.851,3.773,5.784,5.653c1.365,1.327,2.78,3.101,4.447,4.186c-2.052,1.087-4.125,2.127-6.219,3.119
		c-1.421-2.264-3.583-3.996-5.498-5.838c-1.766-1.699-3.534-3.392-5.327-5.061C104.371,60.132,106.641,59.441,108.893,58.702z
		 M100.145,61.265c1.888,2.051,3.82,4.057,5.752,6.067c1.693,1.761,3.284,3.729,5.286,5.14c-2.073,0.95-4.166,1.85-6.277,2.7
		c-2.007-2.318-4.68-4.2-6.979-6.169c-2.23-1.91-4.434-3.87-6.744-5.686C94.193,62.722,97.182,62.037,100.145,61.265z
		 M88.998,63.731c2.391,2.566,5.029,4.911,7.583,7.311c1.79,1.682,3.558,3.645,5.531,5.223c-1.962,0.742-3.941,1.436-5.934,2.085
		c-2.259-2.258-4.865-4.197-7.212-6.364c-2.474-2.285-4.872-4.663-7.206-7.091C84.182,64.562,86.595,64.171,88.998,63.731z
		 M80.334,65.857c3.801,4.615,8.105,9.748,13.062,13.363c-2.355,0.71-4.729,1.361-7.126,1.935c-1.512-2.612-3.937-5.08-5.775-7.229
		c-2.568-3.002-5.449-5.974-8.91-7.941c2.865-0.223,5.723-0.518,8.572-0.882C80.101,65.346,80.134,65.614,80.334,65.857z
		 M70.803,66.83c2.888,2.934,5.898,5.57,8.45,8.83c1.45,1.852,2.781,4.18,4.395,6.085c-2.275,0.493-4.568,0.925-6.878,1.287
		c-1.888-3.241-4.924-6.097-7.436-8.744c-2.611-2.751-5.359-5.325-8.221-7.793c3.232-0.065,6.465-0.21,9.693-0.447
		C70.615,66.254,70.556,66.58,70.803,66.83z M123.036,66.409c-0.739,0.417-1.483,0.823-2.227,1.229
		c-1.191-1.897-3.567-3.435-5.196-4.851c-1.753-1.524-3.506-3.048-5.259-4.572c1.72-0.585,3.426-1.209,5.119-1.861
		c3.09,2.351,6.155,4.728,9.104,7.254c0.358,0.307,0.713,0.627,1.066,0.955C124.721,64.413,123.337,66.239,123.036,66.409z
		 M147.458,38.32c-1.608,3.154-3.216,6.309-4.824,9.463c-0.998-1.254-1.938-2.705-3.223-3.659
		C142.164,42.311,144.85,40.379,147.458,38.32z M138.031,45.029c1.494,1.077,2.108,3.125,3.684,4.173
		c0.055,0.036,0.107,0.047,0.161,0.069c-0.83,1.629-1.661,3.257-2.491,4.886c-0.69-0.826-1.81-1.498-2.564-2.29
		c-1.216-1.275-2.369-2.708-3.73-3.861C134.757,47.051,136.408,46.065,138.031,45.029z M131.389,48.978
		c2.534,2.006,4.001,5.291,6.839,6.91c0.069,0.039,0.147,0.069,0.227,0.093c-0.593,1.162-1.185,2.325-1.778,3.487
		c-1.462-1.542-3.571-2.801-5.132-3.943c-1.684-1.231-3.606-2.774-5.637-3.714C127.756,50.908,129.587,49.972,131.389,48.978z
		 M123.744,52.849c1.958,1.823,4.643,3.15,6.708,4.788c1.551,1.231,3.218,3.064,5.081,4.075c-1.004,1.97-2.008,3.939-3.012,5.909
		c-2.071-2.379-4.833-4.384-7.187-6.324c-2.508-2.067-5.131-3.971-7.864-5.72C119.585,54.723,121.676,53.812,123.744,52.849z
		 M127.13,66.117c-0.006-0.064-0.023-0.12-0.034-0.181c1.395,1.339,2.815,2.685,4.371,3.751c-0.844,1.656-1.688,3.311-2.532,4.967
		C127.991,71.902,127.4,69.11,127.13,66.117z M117.961,43.016c1.604-0.725,0.603-2.9-0.895-2.892c-2.93-2.4-5.892-4.761-8.858-7.117
		c6.775-0.704,13.611,1.833,20.116,2.751c5.011,0.707,13.855,0.357,18.9,0.436C131.919,47.024,112.439,56.29,93.9,60.53
		c-11.579,2.649-23.406,3.914-35.257,4.05c-0.071-0.007-0.139-0.01-0.207,0.003c-9.232,0.096-28.022-1.606-28.162-1.492
		c0.987-6.436,0.722-12.976-1.404-19.187C57.917,50.715,89.887,55.716,117.961,43.016z"/>
	<path d="M95.624,316.638c-1.247-1.577-11.491-15.24-16.925-22.611c-2.955-4.008-5.852-8.057-8.581-12.224
		c-2.548-3.89-4.595-8.313-7.526-11.92c-0.117-0.909-1.444-1.46-2.016-0.453c-9.685,17.07-18.964,34.373-28.809,51.353
		c-0.67,1.155,0.634,2.271,1.735,1.735c4.517-2.201,8.471-5.296,12.805-7.809c-0.595,25.476,0.067,50.958-0.457,76.434
		c-0.028,1.369,1.879,1.853,2.554,0.692c4.308-7.409,8.757-14.435,12.04-22.455c4.917,9.533,11.873,17.786,18.363,26.32
		c0.74,0.973,2.339,0.717,2.384-0.646c0.903-27.247-1.966-54.498-1.906-81.74c5.043,2.128,10.118,4.155,15.355,5.658
		C95.988,319.357,96.539,317.796,95.624,316.638z M61.458,272.421c1.587,3.802,4.161,7.319,6.38,10.714
		c2.891,4.422,5.95,8.737,9.121,12.963c4.796,6.391,9.698,12.777,14.828,18.924c-10.538-4.388-21.542-8.477-32.383-11.766
		c-0.588-0.178-1.355,0.325-1.291,0.983c1.281,13.147,1.019,63.618,1.053,63.671c-4.092,7.766-6.306,10.383-10.602,17.776
		c-0.086-24.008,0.654-75.128-0.654-74.542c-3.71,1.663-8.245,4.703-11.653,6.873C44.869,302.94,53.196,287.691,61.458,272.421z
		 M76.811,330.658c-2.125-2.085-4.899-3.524-7.404-5.112c-2.804-1.777-5.589-3.601-8.457-5.273c-0.02-1.002-0.048-2.004-0.078-3.007
		c2.807,1.412,5.615,2.824,8.422,4.237c2.384,1.199,4.798,2.765,7.38,3.532C76.713,326.909,76.758,328.784,76.811,330.658z
		 M77.116,339.883c0.087,2.344,0.18,4.688,0.275,7.032c-4.938-4.337-10.944-7.43-15.803-11.939c-0.187-0.174-0.397-0.208-0.59-0.168
		c0.021-2.158,0.031-4.317,0.03-6.475C66.01,332.359,71.115,337.405,77.116,339.883z M60.772,353.361
		c3.14,2.746,6.278,5.502,9.26,8.42c2.814,2.754,5.313,6.106,8.276,8.715c0.091,2.864,0.171,5.729,0.23,8.594
		c-2.067-2.731-4.796-5.207-7.003-7.606c-3.491-3.795-7.113-7.462-10.776-11.09C60.749,358.05,60.754,355.705,60.772,353.361z
		 M71.664,360.89c-3.408-3.198-7.006-6.158-10.683-9.039c-0.063-0.049-0.129-0.076-0.195-0.1c0.02-2.062,0.045-4.125,0.074-6.187
		c5.247,4.884,10.893,10.175,17.044,13.832c0.105,2.617,0.204,5.234,0.295,7.852C76.176,364.975,73.805,362.899,71.664,360.89z
		 M60.886,343.694c0.035-2.467,0.069-4.934,0.096-7.401c5.042,4.861,10.857,8.824,16.504,12.944c0.104,2.501,0.208,5.003,0.31,7.504
		C72.262,352.29,66.283,348.362,60.886,343.694z M69.878,333.239c-2.825-2.002-5.535-4.162-8.312-6.228
		c-0.177-0.131-0.367-0.132-0.539-0.066c-0.005-1.641-0.023-3.283-0.048-4.924c2.444,1.787,4.957,3.484,7.445,5.207
		c2.459,1.704,8.262,5.575,8.442,5.359c0.057,1.912,0.096,3.069,0.164,4.981C74.619,336.17,72.177,334.868,69.878,333.239z
		 M76.629,322.818c-1.995-1.196-4.272-2.014-6.36-2.982c-3.112-1.443-6.223-2.885-9.335-4.328c-0.04-0.019-0.078-0.017-0.117-0.029
		c-0.055-1.514-0.126-3.028-0.208-4.542c2.303,2.049,5.546,3.269,8.215,4.739c2.464,1.358,5.064,3.455,7.771,4.456
		C76.605,321.028,76.614,321.923,76.629,322.818z M60.978,367.199c-0.019-1.095-0.199-3.84-0.209-4.935
		c3.255,3.413,6.474,6.857,9.575,10.411c2.629,3.013,5.1,6.86,8.245,9.434c0.048,3.091,0.071,6.181,0.063,9.273
		C72.771,383.742,63.218,369.832,60.978,367.199z M76.564,317.534c-2.176-1.61-5.024-2.752-7.253-3.886
		c-2.673-1.359-5.482-3.175-8.834-4.996c-0.085-1.483-0.1-1.483-0.216-2.966c5.529,1.845,10.908,4.168,16.294,6.469
		C76.548,313.947,76.552,315.741,76.564,317.534z"/>
	<g>
		<path d="M126.76,374.36c-5.957,0-11.862,5.623-12.333,11.532c-0.585,7.33,5.778,12.773,12.846,12.177
			c6.344-0.536,12.145-5.263,11.791-12.084C138.731,379.593,133.025,374.36,126.76,374.36z M126.539,395.496
			c-6.313,0.267-11.057-5.56-8.996-11.659c1.396-4.132,4.193-6.853,9.216-6.823c4.758,0.028,9.334,3.94,9.626,8.972
			C136.713,391.619,131.718,395.277,126.539,395.496z"/>
		<path d="M243.263,387.046c-10.207-7.22-32.659-25.002-32.78-23.494c-0.36,4.476-0.333,10.534-0.306,15.035
			c-14.264,0.522-49.86,0.825-64.134,0.867c-3.163-7.582-11.493-13.415-20.135-12.892c-9.861,0.031-18.317,8.075-19.798,17.93
			c-1.718,11.432,7.459,21.532,18.818,21.79c7.858,0.178,15.806-3.51,19.87-9.865c0.132,0.135,0.316,0.23,0.565,0.235
			c14.557,0.302,50.455,0.146,65.011,0.184c-0.035,4.796-0.134,9.502,0.721,14.259c0.117,0.653,0.768,0.95,1.343,1.022
			c1.106,0.139,2.675-1.293,3.503-1.829c2.852-1.844,5.63-3.81,8.391-5.788c6.651-4.766,13.294-9.691,19.199-15.374
			C244.191,388.493,243.939,387.524,243.263,387.046z M124.929,403.64c-10.951-0.282-19.045-10.834-15.656-21.511
			c2.469-7.78,9.104-12.55,16.812-13.483c9.816-0.103,18.485,8.093,18.801,17.698C145.245,397.287,134.852,403.896,124.929,403.64z
			 M211.504,381.177c0.718-0.019,1.309-0.589,1.318-1.318c0.046-4.205,0.233-8.462,0.08-12.677
			c8.07,6.825,16.681,13.195,25.249,19.415c-23.024-0.166-67.59-0.213-90.59,0.605c0.005-0.285,0.01-0.57,0.002-0.86
			c-0.051-1.841-0.39-3.624-0.939-5.328C161.049,382.367,197.051,381.553,211.504,381.177z M218.477,405.239
			c-1.303,0.896-2.61,1.789-3.939,2.647c-0.19,0.123-0.558,0.309-0.905,0.508c0.004-1.442-0.488-3.294-0.509-4.625
			c-0.042-2.705,0.043-5.416,0.058-8.122c0.147-0.832-0.318-1.79-1.398-1.764c-14.944,0.361-51.232,0.495-66.17,1.108
			c1.002-1.94,1.662-4.09,1.876-6.429c23.529,0.786,68.519,0.921,92.06,0.609C232.978,395.056,225.727,400.254,218.477,405.239z"/>
	</g>
	<path d="M421.76,301.922c2.909,3.358,6.166,6.407,9.586,9.251c-15.706-0.41-32.017,0.014-47.554,1.682
		c0.139-2.483-0.225-4.986-1.206-7.368c-4.794-11.636-20.866-15.964-30.75-8.023c-6.572,5.28-9.623,15.164-5.648,23.227
		c4.08,8.273,14.578,13.985,23.71,10.726c6.948-2.48,12.331-9.1,13.627-16.278c16.187,0.012,32.724,0.478,48.903-0.43
		c-2.652,3.141-5.314,6.28-7.837,9.519c-1.194,1.534,0.854,3.73,2.194,2.194c3.472-3.977,6.734-8.149,10.065-12.246
		c0.936-0.716,0.815-2.349-0.391-2.766c-4.611-3.442-8.906-7.17-13.231-10.956C422.219,299.569,420.883,300.909,421.76,301.922z
		 M364.02,328.765c-14.917-0.712-22.43-18.639-10.967-28.772c8.762-8.165,27.122-2.1,27.552,11.923
		C380.859,320.21,372.26,329.158,364.02,328.765z"/>
	<path d="M424.164,385.268c-4.54-3.54-9.63-6.245-14.23-9.697c-1.074-0.806-2.459,0.988-1.44,1.867
		c3.454,2.983,7.336,5.36,10.987,8.068c-7.039,1.406-16.815,2.747-20.329-4.256c-2.973-5.926-0.807-13.941-5.434-19.102
		c-4.205-4.691-10.264-2.621-12.964,2.426c-3.049,5.698-2.395,12.757-3.137,18.967c-0.641,5.363-3.827,8.618-9.842,5.349
		c-6.242-3.392-6.873-11.529-8.042-17.747c-1.481-7.88-5.246-17.119-14.595-17.446c-9.009-0.316-15.926,7.037-19.017,14.794
		c-2.153,5.403-2.933,11.197-4.237,16.831c-0.896,3.871-1.947,9.282-7.072,9.532c-5.444,0.266-8.773-5.178-10.527-9.467
		c-3.396-8.305-7.443-21.359-19.287-17.677c-10.546,3.278-14.974,16.453-13.523,26.388c0.139,0.95,1.713,0.723,1.672-0.226
		c-0.311-7.068,1.226-14.501,6.39-19.701c7.695-7.749,15.933-3.584,19.551,5.302c2.996,7.357,5.607,18.455,15.724,18.297
		c9.37-0.146,10.047-12.688,11.518-19.359c1.287-5.839,2.919-12.115,7.205-16.529c4.639-4.777,12.694-7.626,18.11-2.347
		c7.848,7.648,3.69,21.02,11.016,29.076c3.776,4.152,12.607,7.108,16.381,1.261c2.686-4.162,1.797-11.022,2.331-15.716
		c0.357-3.141,0.826-7.398,3.133-9.819c5.508-5.781,8.861,2.934,9.464,7.4c0.712,5.273,1.175,11.446,5.723,14.997
		c4.902,3.827,13.558,3.07,19.87,1.965c-3.156,2.837-6.006,6.674-9.009,9.839c-0.715,0.753,0.865,1.868,1.746,1.342
		c4.405-2.624,8.269-8.26,11.664-12.193c0.488-0.281,0.685-0.787,0.641-1.302C424.639,385.965,424.521,385.546,424.164,385.268z"/>
	<path d="M163.804,444.319c-5.789-5.067-13.175-8.865-19.62-13.009c-6.424-4.13-21.467-15.632-21.734-12.587
		c-0.416,4.744-0.659,9.862-0.234,14.615c-14.329-0.371-28.888-0.376-43.198,0.415c-0.066-3.087-0.114-6.175-0.124-9.263
		c0.203-1.058-0.387-2.319-1.781-2.35c-8.036-0.176-16.062-0.089-24.093,0.251c-7.683,0.325-25.138-0.713-25.203,0.628
		c-0.542,11.14-0.881,24.596,0.089,35.709c0.166,1.905-0.006,4.721,1.732,5.942c1.71,1.201,5.352,0.898,7.292,1.019
		c9.812,0.613,19.687,0.57,29.514,0.506c3.141-0.02,12.31,1.635,13.36-2.387c0.582-2.229,0.531-4.936,0.313-7.657
		c10.293,0.679,20.699,0.819,31.064,1.023c0.015,0.013,7.769,0.17,11.094,0.279c0.387,2.569,0.855,13.118,1.334,15.651
		c0.208,1.101,1.631,1.151,2.234,0.419c14.066-6.311,27.151-16.282,38.5-26.594C165.336,446.028,164.755,444.759,163.804,444.319z
		 M156.165,449.749c-0.549-0.762-1.128-1.495-1.726-2.213c1.492,0.019,2.976-0.006,4.437-0.109
		C157.98,448.213,157.076,448.987,156.165,449.749z M152.018,453.107c-1.365-2-2.84-3.922-4.334-5.829
		c1.353,0.068,2.719,0.135,4.091,0.189c0.984,1.169,1.974,2.311,3.055,3.384C153.898,451.612,152.963,452.369,152.018,453.107z
		 M146.903,456.96c-1.112-2.083-3.028-3.878-4.539-5.678c-1.187-1.414-2.35-2.88-3.593-4.26c1.472,0.028,2.944,0.06,4.416,0.085
		c0.704,0.012,1.421,0.037,2.141,0.066c1.672,2.406,3.34,4.816,5.164,7.108C149.305,455.186,148.11,456.082,146.903,456.96z
		 M142.198,460.289c-0.826-2.715-2.732-4.766-4.62-6.84c-1.986-2.181-3.955-4.433-6.003-6.571c1.742,0.038,3.484,0.07,5.226,0.104
		c1.19,1.743,2.558,3.383,3.86,5.034c1.524,1.933,2.985,4.335,4.873,5.93C144.428,458.737,143.317,459.519,142.198,460.289z
		 M138.369,462.885c-2.046-2.775-4.546-5.293-6.781-7.884c-2.383-2.761-4.765-5.522-7.148-8.283c1.714,0.04,3.427,0.078,5.141,0.116
		c1.531,2.564,3.688,4.763,5.673,6.969c2.082,2.315,3.842,4.887,5.955,7.163C140.265,461.608,139.322,462.253,138.369,462.885z
		 M134.157,465.636c-3.053-3.581-6.231-7.077-9.468-10.522c-0.157-0.436-0.475-0.808-0.946-1c-2.392-2.532-4.805-5.044-7.212-7.547
		c1.938,0.026,3.874,0.058,5.803,0.103c0.133,0.003,0.266,0.006,0.399,0.009c2.425,3,4.85,6.001,7.275,9.001
		c2.192,2.712,4.285,5.716,6.694,8.293C135.855,464.528,135.012,465.088,134.157,465.636z M115.878,453.659
		c-2.197-2.044-3.735-4.738-5.561-7.161c1.319,0.013,2.637,0.029,3.954,0.043c2.168,2.44,4.339,4.891,6.527,7.331
		C119.166,453.799,117.525,453.728,115.878,453.659z M110.283,453.448c-2.003-2.452-4.323-4.751-6.548-7.025
		c1.47,0.02,2.939,0.039,4.408,0.053c1.337,1.807,2.566,3.678,3.857,5.525c0.388,0.555,0.779,1.083,1.214,1.551
		C112.238,453.515,111.261,453.48,110.283,453.448z M102.731,453.269c-1.097-1.138-2.371-2.14-3.454-3.275
		c-1.128-1.182-2.138-2.461-3.175-3.718c1.94,0.053,3.881,0.092,5.822,0.122c1.3,1.558,2.599,3.116,3.899,4.674
		c0.623,0.747,1.239,1.524,1.861,2.297C106.036,453.324,104.384,453.29,102.731,453.269z M125.624,464.221
		c-0.268-2.037-0.596-4.066-0.958-6.088c2.628,2.864,5.297,5.685,8.03,8.426c-2.095,1.331-4.207,2.648-6.332,3.957
		C126.354,468.399,125.874,466.127,125.624,464.221z M123.887,436.396c1.86-0.047,0.742-11.076,0.861-15.257
		c5.234,4.17,10.841,7.871,16.365,11.639c5.225,3.564,10.449,7.759,15.913,11.217c-4.269-0.158-8.658,0.172-12.794,0.115
		c-7.3-0.1-14.6-0.248-21.899-0.402c-14.188-0.299-28.748-1.315-42.9-0.111c-0.059,0.005-0.102,0.028-0.154,0.041
		c-0.075-2.38-0.145-4.759-0.205-7.139C93.771,436.778,109.202,436.768,123.887,436.396z M87.667,453.584
		c-0.887-1.25-2.113-2.298-3.169-3.378c-1.544-1.58-3.089-3.16-4.633-4.74c-0.056-0.057-0.116-0.087-0.175-0.121
		c1.993,0.189,3.993,0.34,5.998,0.468c1.795,2.625,3.805,5.392,6.235,7.563C90.5,453.427,89.082,453.496,87.667,453.584z
		 M31.767,461.984C31.938,462.125,31.873,462.137,31.767,461.984L31.767,461.984z M70.472,462.618
		c-5.365,0.076-10.732,0.075-16.097,0.027c-5.408-0.049-10.821-0.129-16.224-0.38c-1.774-0.083-3.751-0.509-5.514-0.388
		c-0.231,0.016-0.632-0.032-0.979-0.113c-0.061-0.162-0.108-0.382-0.088-0.675c0.378-5.543-0.88-11.747-1.104-17.33
		c-0.238-5.949-0.389-11.906-0.489-17.859c7.86,0.819,16.101-0.09,23.971-0.171c7.136-0.074,14.272-0.064,21.405,0.144
		c0.049,7.245,0.269,14.488,0.509,21.73c0.111,3.359,0.234,6.717,0.33,10.077c0.015,0.538-0.236,3.318-0.14,4.844
		c-0.077-0.009-0.139-0.016-0.225-0.026C74.11,462.309,72.201,462.593,70.472,462.618z M76.134,463.169
		c0.037,0.159,0.084,0.275,0.146,0.327C76.12,463.362,76.094,463.257,76.134,463.169z M79.431,448.309
		c-0.013-0.378-0.024-0.757-0.036-1.135c1.258,1.454,2.515,2.909,3.773,4.364c0.626,0.724,1.231,1.507,1.887,2.234
		c-1.712,0.137-3.414,0.307-5.107,0.51C79.735,452.159,79.489,450.093,79.431,448.309z M94.893,453.291
		c-0.958-0.814-1.901-1.644-2.76-2.565c-1.433-1.537-2.713-3.209-4.106-4.78c2.086,0.113,4.175,0.206,6.268,0.273
		c1.045,1.701,2.273,3.314,3.563,4.826c0.613,0.718,1.256,1.48,1.94,2.205C98.162,453.246,96.526,453.258,94.893,453.291z"/>
	<path d="M187.601,351.319c1.908,0.126,5.097-2.737,6.58-3.641c5.476-3.34,10.913-6.744,16.337-10.167
		c5.951-3.756,11.884-7.54,17.766-11.402c3.664-2.406,7.75-4.703,11.068-7.622c1.104-0.426,1.646-2.074,0.313-2.667
		c-8.863-3.946-17.908-7.452-27.021-10.774c-10.552-3.846-21.315-8.25-32.23-10.945c-0.143-0.08-0.29-0.15-0.442-0.206
		c-0.493-0.182-0.864,0.278-0.919,0.7c-0.322,2.478,2.919,6.211,4.15,8.272c1.248,2.09,2.513,4.289,4.085,6.194
		c-9.705,0.687-19.375,1.245-29.113,1.486c-9.072,0.224-25.718,0.556-25.761,0.556c-10.003-0.134-18.113,3.174-20.819,10.11
		c-2.469,6.327,0.149,14.324,6.312,17.433c4.255,2.147,9.374,1.673,13.97,1.624c6.453-0.069,12.906-0.05,19.358-0.099
		c12.552-0.095,25.078-0.516,37.539-2.08c-0.491,4.034-2.38,7.838-2.476,11.927C186.281,350.755,186.911,351.274,187.601,351.319z
		 M142.202,313.672c5.659-0.076,11.318-0.096,16.976-0.165c10.289-0.124,20.724-0.259,30.933-1.641
		c1.68-0.228-3.874-8.256-5.421-11.035c-0.634-1.139-1.269-2.819-2.094-4.262c8.675,3.801,17.908,6.616,26.741,9.959
		c6.766,2.561,13.495,5.218,20.144,8.065c-17.112,11.997-39.463,15.305-59.859,16.433c-10.833,0.6-21.895,0.461-32.703-0.524
		c-3.528-0.322-8.098-0.568-11.146-2.67c-5.019-3.461-1.588-11.19,2.853-13.959c0.312-0.045,0.623-0.087,0.93-0.123
		c0.077-0.009,0.134-0.041,0.202-0.061C133.85,314.152,138.101,313.727,142.202,313.672z M138.026,337.478
		c-8.25,0.052-21.142,2.456-24.174-7.831c-2.625-8.907,4.323-13.374,11.588-15.156c-3.913,3.637-6.064,10.002-2.158,14.052
		c2.655,2.752,6.998,3.394,10.586,3.874c6.547,0.876,13.242,1.008,19.836,1.174c14.097,0.356,27.925-0.917,41.804-3.33
		c13.012-2.262,25.957-6.568,36.676-14.497c1.27,0.557,2.534,1.129,3.797,1.703c-8.462,5.564-16.787,11.341-25.337,16.786
		c-5.089,3.241-10.193,6.459-15.323,9.636c-1.863,1.154-3.726,2.308-5.605,3.434c-0.169,0.101-0.433,0.238-0.721,0.385
		c0.322-3.387,4.149-12.849,0.714-12.557C172.469,336.616,155.293,337.369,138.026,337.478z"/>
	<path d="M478.532,54.612c-2.192-9.178-4.9-18.124-10.895-25.61c-0.892-1.114-2.269-1.024-3.489,1.719
		c-4.394,6.829-8.162,14.225-9.508,22.264c-0.187,1.117,0.718,2.452,2.003,2.003c3.388-1.185,6.157-2.575,8.496-4.772
		c1.107,12.549,2.178,25.442-0.069,37.854c-1.127,6.227-3.247,13.821-9.187,17.149c-4.235,2.372-10.392,2.466-14.668,0.2
		c-5.891-3.123-6.139-9.941-5.753-15.793c0.965-14.607,5.214-30.095,0.623-44.564c-3.087-9.731-12.336-14.203-21.132-7.383
		c-6.648,5.154-8.067,14.753-9.052,22.529c-1.577,12.444-1.494,25.479,1.316,37.753c0.327,1.429,2.78,1.155,2.61-0.353
		c-1.286-11.391-2.11-22.56-0.892-34.009c0.968-9.094,2.577-23.775,13.853-25.502c12.827-1.964,11.972,20.648,11.474,28.684
		c-0.83,13.38-9.685,40.049,10.469,43.532c12.965,2.241,20.596-7.197,23.25-18.674c3.017-13.04,2.056-26.764,0.921-40.081
		c2.158,1.872,4.74,3.291,7.27,4.871C477.405,57.197,478.846,55.928,478.532,54.612z M468.412,45.918
		c-1.673-2.852-1.673-2.852-3.642-0.152c-1.762,2.466-3.759,3.903-6.284,5.026c1.823-6.256,5.663-11.666,8.194-17.647
		c3.389,6.028,5.872,11.853,7.739,18.449C472.031,50.106,469.839,48.454,468.412,45.918z"/>
	<path d="M244.514,445.445c-6.613-4.731-14.55-8.133-21.716-11.963c-7.29-3.897-14.653-7.69-21.919-11.615
		c-0.822-0.444-2.097,0.094-2.007,1.152c0.544,6.386,1.951,12.619,2.388,19.016c-7.331-4.609-25.663-14.233-25.684-13.004
		c-0.156,8.849,1.006,38.302,2.857,38.584c2.99,0.457,7.921-3.269,10.437-4.729c4.312-2.502,8.856-4.935,12.991-7.794
		c-0.665,5.465-1.025,11.153-0.246,16.527c0.154,1.063,1.563,1.429,2.373,0.965c6.846-3.922,13.504-8.158,20.198-12.33
		c6.449-4.019,13.836-7.423,19.897-11.974C245.253,447.972,245.805,446.368,244.514,445.445z M223.289,456.946
		c-6.25,3.91-13.122,8.519-19.479,12.255c-0.457-5.061,1.085-18.497-0.646-17.54c-7.5,4.145-16.147,7.844-23.31,12.557
		c0.27-0.97-0.245-2.641-0.309-3.398c-0.294-3.505-0.413-7.022-0.505-10.537c-0.158-6.013,0.098-12.225-0.825-18.202
		c7.474,4.632,17.209,8.693,24.527,13.67c1.585,1.078-0.488-14.501-1.033-20.299c6.389,3.774,12.876,7.354,19.417,10.891
		c6.246,3.378,14.443,7.163,20.857,10.3C235.566,449.844,228.539,453.662,223.289,456.946z"/>
	<g>
		<path d="M461.487,213.094c-0.349-9.456-1.315-40.39-1.458-51.134c3.438,2.645,8.205,4.988,12.677,5.156
			c1.42,0.054,2.087-1.517,1.523-2.654c-4.806-9.706-11.175-18.86-17.585-27.561c-2.629-3.569-6.024-10.624-9.993-5.279
			c-4.77,6.423-8.318,14.143-11.868,21.275c-1.757,3.531-3.498,7.091-4.968,10.753c-0.682,1.699-2.018,4.141-1.333,6.036
			c0.352,0.975,1.414,1.519,2.376,0.967c4.296-2.468,9.355-5.688,12.411-9.553c0.373,10.155,0.716,40.845,1.349,52.067
			c-10.268,4.242-13.956,16.581-11.167,26.831c2.919,10.727,12.647,17.206,23.731,16.022c9.543-1.02,15.439-9.404,16.71-18.39
			C475.157,228.684,470.957,216.033,461.487,213.094z M471.211,235.238c-0.431,7.726-4.794,16.103-12.986,17.689
			c-22.258,4.31-31.92-28.716-12.269-38.425c0.428-0.212,1.465-0.568,1.324-0.954c0.455-10.898-0.871-43.15-1.146-53.738
			c-0.029-1.125-2.212-2.342-2.722-1.862c-3.04,2.859-7.462,5.821-10.899,8.02c0.434-0.984,0.908-1.959,1.147-2.51
			c1.437-3.317,3.057-6.56,4.696-9.78c3.177-6.243,6.421-12.53,10.179-18.448c0.152-0.239,0.709-0.88,1.119-1.453
			c1.708,0.821,5.064,6.442,6.963,9.145c4.609,6.56,9.236,13.288,13.046,20.38c-3.767-0.557-7.195-1.989-9.707-5.154
			c-1.177-1.483-2.504-0.917-2.637,2.034c-0.011,0.253,0.455,40.866,0.703,51.363c0.031,1.326,0.948,2.726,2.328,3.777
			C466.905,217.416,471.696,226.543,471.211,235.238z"/>
		<path d="M443.054,229.242c-1.985,3.375-1.677,7.761,0.442,11.096c3.494,5.499,12.7,8.724,17.902,3.805
			c4.988-4.717,4.218-12.872-0.079-17.988C458.481,222.776,448.999,219.135,443.054,229.242z M460.913,239.981
			c-2.732,4.888-8.567,4.192-12.611,1.3c-2.872-2.053-4.361-5.412-3.578-8.934c0.404-1.816,1.839-4.474,4.275-5.62
			C456.654,221.943,465.264,232.195,460.913,239.981z"/>
	</g>
	<path d="M467.497,276.134c0.021-1.664-2.027-2.392-3.18-1.317c-5.759,5.367-11.922,10.854-16.646,17.178
		c-0.772,1.033,0.812,2.004,1.67,1.289c3.994-3.328,7.726-6.958,11.552-10.489c-9.058,18.629-11.805,62.741-8.288,82.786
		c0.261,1.489,2.776,1.16,2.655-0.359c-0.903-11.278-1.002-43.055,0.999-54.237c1.617-9.035,4.61-17.356,8.005-25.73
		c0.576,4.373,1.641,8.661,3.232,12.868c0.881,2.33,4.664,1.311,3.765-1.038C468.668,290.316,467.404,283.383,467.497,276.134z"/>
	<path d="M470.815,389.906c-1.306-2.906-2.935-9.116-5.542-11.191c-0.772-0.614-1.932-0.827-2.684,0
		c-7.035,7.742-15.115,14.588-21.835,22.61c-0.868,1.036,0.43,2.305,1.469,1.469c3.213-2.587,6.247-5.389,9.228-8.255
		c-3.13,10.673-3.963,22.883-4.972,33.67c-1.164,12.451-1.92,25.832,0.91,38.122c0.29,1.26,2.362,1.009,2.281-0.309
		c-0.771-12.708-0.884-25.118,0.439-37.813c0.699-6.703,1.685-13.375,2.882-20.007c1.049-5.816,3.422-18.149,3.315-18.387
		c2.42-2.365,4.857-4.709,7.361-6.971c1.094,1.913,2.155,4.972,3.01,7.262c-0.005,0.017-0.014,0.031-0.018,0.049
		c-6.424,24.256-12.266,50.93-8.577,76.092c0.14,0.957,1.673,0.709,1.664-0.225c-0.236-23.81,3.4-47.081,9.396-70.036
		c1.903,4.48,3.715,9.007,5.191,13.642c0.798,2.506,4.769,1.428,3.953-1.09C476.223,402.177,473.554,396,470.815,389.906z"/>
	<path d="M292.993,123.509c0.637,1.372,2.465,1.014,3.187,0c4.53-6.359,8.737-12.914,12.713-19.626
		c3.613,7.366,6.961,14.846,9.999,22.473c0.738,1.851,2.988,1.809,3.74,0c3.148-7.569,5.943-15.256,8.428-23.058
		c3.129,6.418,6.257,12.835,9.385,19.253c0.816,1.675,3.116,1,3.65-0.477c2.766-7.644,5.527-15.289,8.287-22.935
		c1.812,3.487,3.611,6.998,5.621,10.352c1.632,2.721,3.067,4.556,6.27,5.206c4.039,0.819,8.634,0.217,12.738,0.218
		c4.9,0.001,9.801,0.002,14.701,0.002c-3.364,2.15-6.357,4.716-9.021,7.759c-1.7,1.942,1.188,4.8,2.831,2.831
		c2.957-3.542,6.323-6.461,10.309-8.786c2.74-1.598,2.752-3.143,1.939-4c-0.545-0.575-9.012-7.709-11.779-10.428
		c-1.07-1.052-2.733,0.278-2.044,1.577c1.302,2.455,4.249,4.755,6.082,6.982c-6.56,0.023-14.353,0.101-20.91,0.016
		c-2.776-0.036-4.767,0.372-6.85-2.051c-1.158-1.347-1.872-3.399-2.704-4.942c-1.928-3.576-3.855-7.152-5.783-10.728
		c-0.881-1.635-3.132-1.06-3.687,0.482c-2.74,7.603-5.474,15.208-8.208,22.814c-3.176-6.478-6.353-12.956-9.529-19.434
		c-0.775-1.581-3.141-1.058-3.595,0.47c-2.337,7.871-5.027,15.608-8.033,23.239c-3.085-7.393-6.411-14.673-10.027-21.83
		c-0.658-1.301-2.625-1.193-3.311,0c-3.927,6.829-8.131,13.476-12.537,20c-3.239-6.754-6.426-13.548-9.948-20.154
		c-0.769-1.442-3.353-0.427-2.699,1.138C285.55,107.856,289.348,115.659,292.993,123.509z"/>
	<path d="M247.566,255.268c0.83,9.103,1.569,18.215,2.321,27.325c0.185,2.239,0.371,4.478,0.563,6.716
		c0.115,1.34-0.189,4.071,0.48,5.224c0.66,1.138,1.182,1.279,2.466,1.319c4.443,0.142,10.141-2.628,14.275-3.909
		c5.771-1.788,11.625-3.55,17.252-5.786c-0.415,3.277-0.81,6.582-0.215,9.84c0.163,0.891,1.403,1.366,2.135,0.869
		c9.65-6.555,18.722-13.872,27.031-22.068c0.311-0.173,0.56-0.466,0.714-0.808c0.111-0.21,0.163-0.425,0.161-0.637
		c0.032-0.522-0.169-1.061-0.721-1.43c-5.941-3.971-11.66-8.284-17.486-12.42c-4.323-3.068-9.291-7.72-14.463-9.298
		c-0.838-0.256-1.876,0.458-1.807,1.376c0.271,3.61,1.868,6.968,2.611,10.48c-11.14-2.404-22.114-5.547-33.125-8.466
		C248.755,253.331,247.461,254.12,247.566,255.268z M310.751,273.533c-7.466,7.018-15.181,13.598-23.541,19.525
		c-0.215-2.664,1.678-11.49-0.261-10.777c-10.048,3.699-21.492,7.102-31.925,9.576c-0.209,0.05-0.476,0.142-0.752,0.231
		c0.118-0.34-0.08-0.988-0.168-2.005c-0.301-3.474-0.589-6.949-0.876-10.424c-0.609-7.369-1.269-14.733-1.98-22.093
		c10.82,2.825,21.869,4.921,32.737,7.548c3.098,0.749,0.026-8.257-0.556-11.285c4.457,2.177,8.829,6.33,12.584,9.042
		C300.925,266.42,305.77,270.079,310.751,273.533z"/>
	<path d="M138.446,262.59c-0.462-0.248-1.555,15.109,1.62,16.526c1.737,0.776,5.708-0.056,7.611-0.112
		c3.36-0.1,6.72-0.231,10.076-0.427c5.662-0.332,11.45-0.636,17.052-1.622c-0.058,3.124,0.413,6.123,0.899,9.248
		c0.142,0.913,1.428,1.35,2.215,0.901c10.177-5.803,26.158-13.435,28.225-15.892c1.878-2.233-10.073-7.733-14.382-10.06
		c-4.991-2.696-9.866-5.574-14.773-8.414c-1.119-0.648-2.18,0.216-2.33,1.337c-0.368,2.758-0.756,5.326-0.643,8.048
		C162.682,261.842,152.155,262.457,138.446,262.59z M171.85,265.577c4.655,4.04,8.745,8.659,13.244,12.843
		c-2.492,1.39-4.875,2.906-7.048,4.646c-0.517-2.201-0.819-9.472-2.307-9.402c-1.1,0.052-2.2,0.117-3.299,0.188
		c-0.383-0.602-0.956-1.116-1.431-1.63c-0.999-1.082-1.998-2.164-3.038-3.206c-0.972-0.974-1.989-1.992-3.088-2.892
		C167.23,266.027,169.557,265.854,171.85,265.577z M175.626,265.019c1.119-0.202,0.914-3.992,1.038-4.888
		c3.224,2.793,6.573,5.441,9.946,8.051c2.438,1.887,4.922,4.078,7.646,5.631c-2.175,1.037-4.362,2.077-6.501,3.178
		c-4.383-4.073-8.89-8.053-13.608-11.733C174.64,265.182,175.135,265.108,175.626,265.019z M161.891,266.214
		c1.838,1.414,3.426,3.089,4.952,4.846c0.659,0.759,1.485,1.994,2.413,3.023c-1.833,0.143-3.666,0.3-5.498,0.462
		c-0.523-1.64-2.785-2.929-3.996-4.005c-1.603-1.425-3.166-2.894-4.75-4.339C157.308,266.24,159.605,266.254,161.891,266.214z
		 M141.62,276.022c-0.488-0.358-0.601-3.14-0.692-3.721c-0.3-1.919-0.195-4.34-0.656-6.35c0.038,0,0.075-0.001,0.113-0.001
		c2.219,2.225,4.306,4.546,6.396,6.894c0.665,0.747,1.456,1.802,2.339,2.783c-0.481,0.021-0.962,0.049-1.443,0.065
		C146.725,275.722,142.223,276.465,141.62,276.022z M153.027,275.414c-0.396-0.402-0.85-0.765-1.272-1.168
		c-1.263-1.203-2.465-2.468-3.686-3.713c-1.501-1.53-2.99-3.137-4.611-4.572c2.964,0.035,5.971,0.122,8.991,0.19
		c1.715,2.159,3.614,4.191,5.585,6.119c0.671,0.657,1.538,1.734,2.484,2.56C158.023,275.048,155.527,275.25,153.027,275.414z
		 M201.475,270.223c-1.509,0.808-3.057,1.585-4.63,2.347c-2.682-2.556-6.206-4.452-9.182-6.648
		c-3.537-2.61-7.023-5.277-10.706-7.677c0.099-0.553,0.198-1.107,0.309-1.662c4.165,2.652,8.474,5.092,12.793,7.476
		C193.702,266.071,197.504,268.642,201.475,270.223z"/>
	<path d="M148.981,113.683c0.295,2.033,0.288,4.457,1.605,6.109c0.465,0.584,16.137,0.478,23.248,0.385
		c7.678-0.1,15.353-0.295,23.029-0.499c15.216-0.404,30.432-0.796,45.655-0.739c0.107,0,0.204-0.015,0.302-0.029
		c0.085,2.437,0.298,5.45,1.456,6.522c2.087,1.93,6.105-1.669,7.646-2.763c4.144-2.943,8.27-6.118,11.915-9.667
		c0.644-0.627,0.736-1.911,0-2.523c-2.323-1.93-4.901-3.437-7.511-4.942c-4.263-2.459-9.766-6.198-14.217-8.245
		c-1.389-0.639-0.678,6.268-0.566,8.043c-14.594-0.787-29.303-0.45-43.903-0.123c-15.991,0.358-32.369,0.243-48.263,2.13
		c-0.813,0.096-1.147,0.834-0.974,1.415C148.11,110.31,148.766,112.199,148.981,113.683z M259.83,111.868
		c-2.515,2.315-5.215,4.458-7.933,6.51c-1.483,1.119-3.469,2.046-4.77,3.342c-0.008,0.008-0.101,0.057-0.23,0.124
		c-0.044-1.416-0.696-3.582-0.829-4.597c-0.302-2.3-0.57-4.604-0.84-6.907c-0.297-2.531-0.45-5.151-0.764-7.723
		C249.238,106.173,255,108.379,259.83,111.868z M197.639,108.733c14.759-0.279,29.475-0.02,44.229,0.233
		c0.231,2.108,0.505,4.198,0.73,6.227c-0.027-0.001-0.051-0.008-0.079-0.007c-15.226,0.061-30.44,0.572-45.655,1.111
		c-7.676,0.272-15.352,0.544-23.029,0.774c-6.928,0.208-14.142-0.167-21.043,0.705c-0.118-1.712-0.786-3.612-1.068-5.211
		c-0.164-0.934-0.268-2.05-0.596-3.027C166.553,110.253,182.217,109.025,197.639,108.733z"/>
	<path d="M432.471,432.733c-13.374-6.113-27.122-13.093-38.609-22.398c-0.97-0.786-2.692-0.09-2.26,1.316
		c1.301,4.236,2.572,8.327,4.589,12.208c-31.593,1.311-97.157,0.951-97.117,2.009c0.257,6.861-0.185,14.909,0.642,21.73
		c0.112,0.923,0.685,1.674,1.693,1.693c32.322,0.609,64.567-2.728,96.888-2.328c-0.162,5.262-1.184,10.39-2.659,15.454
		c-0.393,1.35,1.292,2.884,2.548,1.959c12.095-8.905,23.388-19.049,34.663-28.959c0.683-0.6,0.699-1.32,0.371-1.889
		C433.103,433.202,432.867,432.914,432.471,432.733z M302.928,445.911c-0.574-6.013-0.218-12.164-1.284-18.102
		c2.88-0.087,5.102-0.134,7.982-0.177c-0.14,4.435-0.475,15.95-0.036,18.278C307.369,445.926,305.149,445.927,302.928,445.911z
		 M312.934,445.882c0.228-2.319-0.27-14.768-1.121-18.282c28.499-0.355,57.009,1.142,85.498-0.125
		c0.78-0.035,1.296-0.465,1.558-1.017c0.372-0.267,0.598-0.77,0.36-1.322c-1.445-3.344-2.671-6.624-3.757-10.011
		c4.821,3.794,9.892,7.175,15.196,10.337c5.551,3.31,11.401,6.868,17.504,9.27c-9.675,7.733-18.683,16.268-28.37,24.003
		c0.658-4.051,2.492-14.747,0.703-14.772C371.625,443.559,341.798,445.512,312.934,445.882z"/>
	<path d="M325.399,453.051c-1.109,0.475-1.099,6.245-1.166,8.454c-19.197-0.422-38.417,0.932-57.546,2.411
		c-0.657-8.893-1-17.805-1.283-26.717c3.963-1.034,7.011-3.637,6.713-8.544c-0.238-3.926-3.84-7.438-9.395-7.433
		c-4.714,0.005-8.619,3.204-9.315,7.883c-0.777,5.233,4.172,8.366,8.908,8.479c0.215,0.005,0.436-0.005,0.657-0.014
		c-0.43,9.399-0.167,18.754,0.484,28.143c0.059,0.857,0.722,1.743,1.678,1.678c19.666-1.336,39.227-2.307,58.934-2.357
		c-0.142,2.448-0.313,4.897-0.356,7.359c-0.02,1.118,1.111,1.944,2.17,1.653c2.78-0.763,5.454-2.274,7.952-3.679
		c2.235-1.257,5.046-2.549,6.329-4.877C340.589,464.717,326.338,452.649,325.399,453.051z M256.579,429.14
		c0.583-3.076,3.114-5.054,6.144-5.415c0.013-0.002,0.022-0.009,0.035-0.011c3.117-0.029,5.519,1.974,5.721,4.522
		c0.336,4.239-2.832,6.152-6.164,6.064C259.359,434.222,255.935,432.537,256.579,429.14z M332.034,467.286
		c-1.584,0.895-3.214,1.661-4.853,2.416c0.137-4.116,0.542-8.329,0.055-12.401c1.393,1.126,2.782,2.259,4.188,3.37
		c1.57,1.242,3.151,2.739,4.863,3.911C334.838,465.43,333.464,466.479,332.034,467.286z"/>
	<path d="M310.08,208.954c-0.375,0.116-0.69,0.388-0.772,0.829c-0.784,4.198-0.349,8.797-0.363,13.054
		c-0.003,0.918,0.767,1.645,1.668,1.668c2.437,0.061,4.877,0.12,7.315,0.103c1.635-0.012,3.874,0.478,5.323-0.354
		c1.276-0.733,1.128-11.216,1.04-14.786c-0.017-0.697-0.559-1.26-1.255-1.308c-1.552-0.106-3.556-0.093-4.768-0.025
		c-0.005-2.854-0.111-5.704-0.131-8.56c-0.003-0.365-0.085-0.582-0.201-0.706c1.516-0.507,4.281-0.022,5.798-0.044
		c7.101-0.105,14.203-0.188,21.304-0.274c14.433-0.176,28.905,0.073,43.339-0.229c-1.977,1.898-6.345,5.04-5.549,7.802
		c0.129,0.449,0.566,0.76,1.033,0.773c2.261,0.062,8.985-8.111,9.579-8.994c1.188-0.795,1.103-2.823-0.267-3.428
		c-0.96-1.129-6.854-5.8-8.419-7.309c-1.008-0.971-2.932,0.348-2.024,1.562c1.557,2.082,3.534,3.718,5.404,5.49
		c-16.145-0.274-32.385,0.383-48.512,0.681c-6.694,0.123-13.425,0.192-20.105,0.681c-0.828,0.06-2.625-0.1-3.378,0.356
		c-0.816,0.495-0.808,0.687-1.175,1.533c-0.596,1.375,0.083,9.196,0.22,10.645C313.358,208.024,309.842,208.02,310.08,208.954z
		 M322.171,220.892c0.027-0.027,0.05-0.037,0.062-0.013C322.234,220.88,322.201,220.886,322.171,220.892z M320.878,211.686
		c0.11-0.002,0.416,0.03,0.745,0.054c-0.101,1.294,0.065,2.702,0.035,3.985c-0.036,1.495-0.09,2.991-0.193,4.483
		c-0.008,0.116-0.065,0.417-0.107,0.717c-1.543-0.2-3.491,0.194-5.017,0.217c-1.357,0.021-2.715,0.019-4.072,0.019
		c0.006-3.056,0.118-6.234-0.228-9.268c1.072,0.141,2.277-0.008,3.222-0.028C317.135,211.825,319.006,211.725,320.878,211.686z"/>
	<path d="M272.84,316.146c5.961,0.324,10.357,4.224,12.533,9.586c0.998,2.458,0.845,5.704,2.013,7.982
		c1.008,1.966,2.685,1.737,4.743,1.849c11.281,0.611,22.677,0.563,33.972,0.289c0.146,1.942,0.312,3.88,0.492,5.79
		c0.119,1.266,1.341,2.108,2.537,1.456c4.63-2.527,9.26-5.054,13.891-7.582c1.175-0.641,1.142-2.429,0-3.079
		c-2.604-1.482-5.214-2.955-7.858-4.365c-2.341-1.248-5.622-2.928-8.275-3.343c-1.684-0.263-1.097,5.683-1.02,7.276
		c-7.648,0.225-15.305,0.239-22.956,0.167c-3.042-0.029-6.086-0.065-9.127-0.163c-0.547-0.018-2.279-0.35-3.033-0.197
		c0.037-8.945-7.839-17.885-16.396-19.012c-15.472-2.039-27.582,20.784-14.604,31.252c7.452,6.011,20.438,0.572,21.496-8.836
		c0.656-5.826-3.224-12.63-9.953-11.672c-6.617,0.941-6.621,9.188-2.127,12.592c1.374,1.04,3.086-1.226,1.835-2.378
		c-3.654-3.364,0.093-8.696,4.149-6.07c1.346,0.871,2.126,1.877,2.575,3.473c0.991,3.528-0.133,7.311-3.069,9.396
		c-4.556,3.237-10.918,3.768-14.514-1.096C253.522,330.506,261.913,315.552,272.84,316.146z M338.461,333.987
		c-2.916,1.638-5.831,3.276-8.747,4.914c-0.268-3.254-0.467-6.555-0.931-9.784c1.648,0.798,3.402,1.482,4.962,2.305
		C335.327,332.259,336.895,333.121,338.461,333.987z M290.76,332.361c0.002-0.043-0.003-0.085-0.002-0.127
		C291.029,332.63,290.732,333.06,290.76,332.361z"/>
</g>
</svg>
