<svg xmlns:dc="http://purl.org/dc/elements/1.1/" xmlns:cc="http://creativecommons.org/ns#" xmlns:rdf="http://www.w3.org/1999/02/22-rdf-syntax-ns#" xmlns:svg="http://www.w3.org/2000/svg" xmlns="http://www.w3.org/2000/svg" xmlns:sodipodi="http://sodipodi.sourceforge.net/DTD/sodipodi-0.dtd" xmlns:inkscape="http://www.inkscape.org/namespaces/inkscape" viewBox="0 0 26.458333 33.0729175" version="1.1" x="0px" y="0px"><g transform="translate(131.02975,-196.70833)"><path d="m -127.52501,201.6684 c -1.65099,0.007 -2.98223,1.35192 -2.97556,3.00554 l 0.0379,9.38934 c 0.007,1.65361 1.34871,2.98801 2.9997,2.98136 l 13.69393,-0.0552 c 0.41275,-0.001 0.8067,-0.0867 1.16401,-0.23938 0.35731,-0.15264 0.6781,-0.3726 0.94698,-0.64423 0.0918,-0.0928 0.17739,-0.19173 0.25648,-0.29594 0.18054,0.0929 0.36902,0.15809 0.56038,0.19596 l -0.27374,0.1598 c -0.26678,0.15575 -0.35817,0.50725 -0.20305,0.77391 l 0.60627,1.04226 c 0.15512,0.26666 0.50542,0.36028 0.7722,0.20453 l 4.56021,-2.66215 c 0.26681,-0.15575 0.35829,-0.50731 0.20317,-0.77397 l -0.60627,-1.04225 c -0.15512,-0.26666 -0.50552,-0.36023 -0.7723,-0.20448 l -0.33036,0.19286 -3.40585,-5.85508 c -0.12481,-0.21455 -0.3139,-0.36977 -0.52905,-0.45447 l -0.0114,-2.79215 c -0.007,-1.65361 -1.34881,-2.98811 -2.99979,-2.98146 z m 10e-4,0.51744 13.69393,-0.0552 c 1.37266,-0.006 2.47462,1.08964 2.48017,2.46611 l 0.0113,2.72418 c -0.006,7.7e-4 -0.01,0.001 -0.0153,0.001 -0.0546,0.006 -0.11177,0.0142 -0.17073,0.0292 l -2.01983,0.40128 -0.86374,-3.16827 c -0.0664,-0.24332 -0.27506,-0.41494 -0.51233,-0.44827 -0.0791,-0.0113 -0.16142,-0.007 -0.24262,0.0153 l -4.99833,1.3592 c -0.0608,0.0166 -0.11801,0.042 -0.16922,0.0746 a 0.2587775,0.2587775 0 0 0 -0.0611,0.0548 c -0.17689,0.15054 -0.2648,0.39077 -0.20058,0.62641 l 2.09597,8.13438 a 0.2587775,0.2587775 0 0 0 9.6e-4,0.003 c 0.0885,0.32439 0.43001,0.52131 0.75478,0.43307 l 4.85458,-1.31819 c 0.16772,0.90616 0.5535,1.57888 1.05322,2.00143 -0.0601,0.0773 -0.12481,0.15095 -0.1936,0.22046 -0.22238,0.22467 -0.48773,0.40648 -0.78272,0.5325 -0.29497,0.12595 -0.61951,0.1964 -0.96267,0.19777 l -13.69394,0.0552 c -1.37266,0.006 -2.47463,-1.08954 -2.48017,-2.46599 l -0.0376,-9.38832 c -0.006,-1.37645 1.08756,-2.48048 2.46021,-2.48601 z m 3.39383,1.98268 a 0.25877746,0.25877746 0 0 0 -0.18129,0.44396 c 1.19239,1.19747 1.93206,2.85492 1.93949,4.69934 l 1.8e-4,0.0481 c 0.007,1.8444 -0.71885,3.50773 -1.90154,4.71476 a 0.25878633,0.25878633 0 1 0 0.3697,0.36222 c 1.27507,-1.30133 2.05728,-3.0974 2.04929,-5.07907 l -2.1e-4,-0.0481 c -0.009,-1.98168 -0.80463,-3.77139 -2.09015,-5.06239 a 0.25877746,0.25877746 0 0 0 -0.18547,-0.0789 z m 9.13289,0.47867 c 0.0423,1.8e-4 0.0766,0.0272 0.0894,0.0739 l 1.31702,4.83082 -1.60746,-1.28005 c -0.009,-0.009 -0.0182,-0.0173 -0.0274,-0.0257 -0.003,-0.003 -0.006,-0.006 -0.01,-0.009 -0.0142,-0.0113 -0.0272,-0.0238 -0.0413,-0.0352 -4e-5,-3e-5 -9e-5,-7e-5 -1.4e-4,-1e-4 -0.0142,-0.0113 -0.0282,-0.022 -0.0426,-0.0325 -0.003,-0.003 -0.007,-0.006 -0.01,-0.007 -0.0145,-0.01 -0.0291,-0.0206 -0.044,-0.0302 -5e-5,-4e-5 -1e-4,-9e-5 -1.4e-4,-1.1e-4 -0.0147,-0.01 -0.0298,-0.0187 -0.045,-0.0275 -0.004,-0.003 -0.007,-0.004 -0.0114,-0.006 -0.0153,-0.009 -0.0306,-0.0172 -0.0461,-0.0251 -6e-5,-1e-5 -1.2e-4,-3e-5 -1.7e-4,-7e-5 -0.0155,-0.009 -0.0311,-0.0153 -0.0467,-0.0224 -0.004,-0.001 -0.009,-0.004 -0.0128,-0.006 -0.0157,-0.007 -0.0316,-0.0142 -0.0475,-0.02 -6e-5,-1e-5 -1.2e-4,-4e-5 -1.9e-4,-6e-5 -0.0159,-0.006 -0.032,-0.0113 -0.0482,-0.0174 -0.004,-0.001 -0.009,-0.003 -0.0128,-0.004 -0.0163,-0.006 -0.0326,-0.01 -0.0491,-0.015 -6e-5,-2e-5 -1.3e-4,-2e-5 -1.9e-4,-3e-5 -0.016,-0.004 -0.032,-0.009 -0.0482,-0.0128 -0.006,-10e-4 -0.01,-0.003 -0.0156,-0.003 -0.0147,-0.003 -0.0296,-0.006 -0.0445,-0.009 -0.003,-3.7e-4 -0.006,-9.5e-4 -0.007,-0.001 -0.0153,-0.003 -0.0305,-0.004 -0.046,-0.007 -0.006,-7.6e-4 -0.01,-0.001 -0.0149,-0.001 -0.0157,-0.001 -0.0315,-0.003 -0.0474,-0.004 -9.5e-4,-6e-5 -0.001,-1.7e-4 -0.003,-1.8e-4 -0.0166,-0.001 -0.0332,-0.001 -0.0496,-0.003 -0.004,-1.4e-4 -0.01,-1.6e-4 -0.0146,-3.7e-4 -0.11872,-10e-4 -0.23778,0.0142 -0.35241,0.0487 -0.179,0.054 -0.34797,0.15327 -0.48802,0.29491 -0.44483,0.45019 -0.47237,1.20525 0.007,1.64125 0.61408,0.61119 1.45967,1.31167 2.24746,1.96577 0.63069,0.54816 1.16693,1.01256 1.35513,1.17554 l -4.66324,1.26626 c -0.0556,0.0152 -0.10396,-0.0128 -0.11971,-0.0698 -1e-5,-5e-5 0,-3e-5 0,-1e-4 l -2.09638,-8.13438 a 0.2587775,0.2587775 0 0 0 -7.6e-4,-0.003 c -0.0128,-0.0468 0.007,-0.0869 0.0406,-0.10864 a 0.2587775,0.2587775 0 0 0 3.7e-4,-2e-4 c 0.007,-0.004 0.0163,-0.009 0.0265,-0.0113 l 4.99829,-1.35917 c 0.01,-0.003 0.0207,-0.004 0.0304,-0.004 z m -10.12598,0.53681 a 0.25877746,0.25877746 0 0 0 -0.18116,0.44396 c 0.93733,0.9413 1.51873,2.24388 1.52457,3.69444 l 1.5e-4,0.0383 c 0.006,1.45057 -0.56503,2.75778 -1.49474,3.7066 a 0.25877746,0.25877746 0 1 0 0.36955,0.36222 c 1.0221,-1.04312 1.64918,-2.48307 1.64278,-4.07092 l -1.5e-4,-0.0383 c -0.007,-1.58783 -0.64507,-3.02265 -1.67553,-4.0575 a 0.25877746,0.25877746 0 0 0 -0.18547,-0.0789 z m -0.99283,1.01549 a 0.25877746,0.25877746 0 0 0 -0.18128,0.44399 c 0.68223,0.68514 1.10551,1.63286 1.10976,2.68954 l 1.1e-4,0.0284 c 0.004,1.05668 -0.41138,2.00779 -1.08804,2.6984 a 0.25878132,0.25878132 0 1 0 0.36968,0.36221 c 0.76907,-0.7849 1.24063,-1.86875 1.23581,-3.0627 l -1.1e-4,-0.0284 c -0.004,-1.19395 -0.48508,-2.27397 -1.26045,-3.05263 a 0.25877746,0.25877746 0 0 0 -0.18548,-0.0789 z m -0.99309,1.01562 a 0.25877746,0.25877746 0 0 0 -0.18127,0.44396 c 0.42716,0.42898 0.6923,1.02176 0.69498,1.68459 l 7e-5,0.0184 c 0.003,0.66279 -0.25769,1.25784 -0.68137,1.69023 a 0.25877746,0.25877746 0 1 0 0.3697,0.36217 c 0.51606,-0.52667 0.83248,-1.25441 0.82926,-2.0545 l -8e-5,-0.0184 c -0.003,-0.80009 -0.32551,-1.52515 -0.84579,-2.04765 a 0.25877746,0.25877746 0 0 0 -0.1855,-0.0789 z m 15.90347,0.61454 c 0.18471,7.7e-4 0.36381,0.0956 0.46637,0.2719 l 3.40625,5.85568 -2.37917,1.38891 c -0.4956,0.26437 -1.07154,0.25043 -1.5783,-0.0671 -0.53019,-0.33216 -0.99213,-1.0109 -1.13122,-2.11601 a 0.2587775,0.2587775 0 0 0 -0.01,-0.043 0.2587775,0.2587775 0 0 0 -7e-5,-1.3e-4 0.2587775,0.2587775 0 0 0 -0.009,-0.0228 0.2587775,0.2587775 0 0 0 -7.7e-4,-0.001 0.2587775,0.2587775 0 0 0 -0.01,-0.0199 0.2587775,0.2587775 0 0 0 -0.003,-0.004 0.2587775,0.2587775 0 0 0 -0.01,-0.0172 0.2587775,0.2587775 0 0 0 -0.003,-0.006 0.2587775,0.2587775 0 0 0 -0.0113,-0.0147 0.2587775,0.2587775 0 0 0 -0.004,-0.006 0.2587775,0.2587775 0 0 0 -0.0143,-0.0157 c -0.4687,-0.46649 -1.18249,-1.05607 -1.91437,-1.66305 -0.71064,-0.61861 -1.47747,-1.28812 -2.04436,-1.7888 -0.22003,-0.22227 -0.24822,-0.55384 -0.084,-0.80381 0.018,-0.0272 0.038,-0.0535 0.0603,-0.0784 0.007,-0.009 0.015,-0.0163 0.023,-0.0244 0.0296,-0.0299 0.0611,-0.0563 0.094,-0.079 0.055,-0.0379 0.11418,-0.0657 0.17575,-0.0844 0.0406,-0.0128 0.0821,-0.0204 0.12396,-0.0245 0.18121,-0.0174 0.36811,0.0428 0.51072,0.18476 a 0.2587775,0.2587775 0 0 0 0.0213,0.019 l 2.23539,1.77998 a 0.2587775,0.2587775 0 0 0 0.001,9.5e-4 l 0.88481,0.7047 a 0.25878164,0.25878164 0 0 0 0.004,0.003 0.2587775,0.2587775 0 0 0 0.32661,-0.40089 0.25878164,0.25878164 0 0 0 -0.009,-0.007 l -0.81972,-0.65278 -0.4992,-1.84474 1.98419,-0.39416 a 0.25877746,0.25877746 0 0 0 0.0174,-0.004 c 0.0325,-0.009 0.0672,-0.0146 0.10495,-0.018 a 0.25877746,0.25877746 0 0 0 0.0128,-0.001 c 0.0264,-0.004 0.0529,-0.006 0.0793,-0.006 z m -16.89657,0.40094 a 0.25877746,0.25877746 0 0 0 -0.18111,0.444 c 0.17208,0.17281 0.27907,0.41091 0.28017,0.67983 l 2e-5,0.009 c 0.001,0.26896 -0.10396,0.50772 -0.27467,0.68193 a 0.25877746,0.25877746 0 1 0 0.36955,0.36222 c 0.26305,-0.26847 0.4242,-0.63999 0.42257,-1.04624 l -4e-5,-0.009 c -0.001,-0.40625 -0.16579,-0.77662 -0.43099,-1.04294 a 0.25877746,0.25877746 0 0 0 -0.1855,-0.0789 z m 21.83442,5.71201 c 0.0145,4e-4 0.0274,0.009 0.0373,0.0264 l 0.60624,1.04223 c 0.016,0.0275 0.01,0.0506 -0.0163,0.0658 l -4.56021,2.66215 c -0.026,0.0152 -0.0492,0.01 -0.0652,-0.0181 l -0.60626,-1.04226 c -0.016,-0.0275 -0.01,-0.0506 0.0163,-0.0658 l 1.39667,-0.81536 c 0.0268,-0.0145 0.0535,-0.0292 0.0797,-0.0448 a 0.2587775,0.2587775 0 0 0 0.022,-0.0146 l 3.06177,-1.78739 c 0.01,-0.006 0.0191,-0.009 0.0278,-0.009 z" style="color:#000000;font-style:normal;font-variant:normal;font-weight:normal;font-stretch:normal;font-size:medium;line-height:normal;font-family:sans-serif;font-variant-ligatures:normal;font-variant-position:normal;font-variant-caps:normal;font-variant-numeric:normal;font-variant-alternates:normal;font-feature-settings:normal;text-indent:0;text-align:start;text-decoration:none;text-decoration-line:none;text-decoration-style:solid;text-decoration-color:#000000;letter-spacing:normal;word-spacing:normal;text-transform:none;writing-mode:lr-tb;direction:ltr;text-orientation:mixed;dominant-baseline:auto;baseline-shift:baseline;text-anchor:start;white-space:normal;shape-padding:0;clip-rule:nonzero;display:inline;overflow:visible;visibility:visible;opacity:1;isolation:auto;mix-blend-mode:normal;color-interpolation:sRGB;color-interpolation-filters:linearRGB;solid-color:#000000;solid-opacity:1;vector-effect:none;fill:#000000;fill-opacity:1;fill-rule:nonzero;stroke:none;stroke-width:0.51750314;stroke-linecap:round;stroke-linejoin:round;stroke-miterlimit:4;stroke-dasharray:none;stroke-dashoffset:0;stroke-opacity:1;paint-order:fill markers stroke;color-rendering:auto;image-rendering:auto;shape-rendering:auto;text-rendering:auto;enable-background:accumulate"/></g><text x="0" y="41.458334" fill="#000000" font-size="5px" font-weight="bold" font-family="'Helvetica Neue', Helvetica, Arial-Unicode, Arial, Sans-serif">Created by Lia Rahdiah</text><text x="0" y="46.458334" fill="#000000" font-size="5px" font-weight="bold" font-family="'Helvetica Neue', Helvetica, Arial-Unicode, Arial, Sans-serif">from the Noun Project</text></svg>