<?xml version="1.0" encoding="UTF-8"?>
<svg xmlns="http://www.w3.org/2000/svg" xmlns:xlink="http://www.w3.org/1999/xlink" width="5000" height="4500" viewBox="0 0 5000 4500">
<defs>
<clipPath id="clip-0">
<path clip-rule="nonzero" d="M 1980 4274 L 3013 4274 L 3013 4368 L 1980 4368 Z M 1980 4274 "/>
</clipPath>
<clipPath id="clip-1">
<path clip-rule="nonzero" d="M 2496.238281 4367.199219 C 2211.289062 4367.199219 1980.269531 4346.378906 1980.269531 4320.710938 C 1980.269531 4295.03125 2211.289062 4274.21875 2496.238281 4274.21875 C 2781.199219 4274.21875 3012.210938 4295.03125 3012.210938 4320.710938 C 3012.210938 4346.378906 2781.199219 4367.199219 2496.238281 4367.199219 "/>
</clipPath>
<clipPath id="clip-2">
<path clip-rule="nonzero" d="M 2496.238281 4367.199219 C 2211.289062 4367.199219 1980.269531 4346.378906 1980.269531 4320.710938 C 1980.269531 4295.03125 2211.289062 4274.21875 2496.238281 4274.21875 C 2781.199219 4274.21875 3012.210938 4295.03125 3012.210938 4320.710938 C 3012.210938 4346.378906 2781.199219 4367.199219 2496.238281 4367.199219 "/>
</clipPath>
<radialGradient id="radial-pattern-0" gradientUnits="userSpaceOnUse" cx="0" cy="0" fx="0" fy="0" r="281.2178" gradientTransform="matrix(1.834674, 0, 0, 0.165326, 2496.24, 4320.71)">
<stop offset="0" stop-color="rgb(59.002686%, 59.394836%, 59.313965%)" stop-opacity="1"/>
<stop offset="0.0078125" stop-color="rgb(59.121704%, 59.632874%, 59.577942%)" stop-opacity="1"/>
<stop offset="0.0117188" stop-color="rgb(59.20105%, 59.791565%, 59.753418%)" stop-opacity="1"/>
<stop offset="0.015625" stop-color="rgb(59.346008%, 59.94873%, 59.941101%)" stop-opacity="1"/>
<stop offset="0.0195312" stop-color="rgb(59.562683%, 60.10437%, 60.139465%)" stop-opacity="1"/>
<stop offset="0.0234375" stop-color="rgb(59.785461%, 60.26001%, 60.340881%)" stop-opacity="1"/>
<stop offset="0.0273438" stop-color="rgb(60.005188%, 60.414124%, 60.540771%)" stop-opacity="1"/>
<stop offset="0.03125" stop-color="rgb(60.206604%, 60.546875%, 60.688782%)" stop-opacity="1"/>
<stop offset="0.0351562" stop-color="rgb(60.380554%, 60.652161%, 60.777283%)" stop-opacity="1"/>
<stop offset="0.0390625" stop-color="rgb(60.552979%, 60.75592%, 60.85968%)" stop-opacity="1"/>
<stop offset="0.0429688" stop-color="rgb(60.723877%, 60.85968%, 60.942078%)" stop-opacity="1"/>
<stop offset="0.046875" stop-color="rgb(60.894775%, 60.992432%, 61.062622%)" stop-opacity="1"/>
<stop offset="0.0507812" stop-color="rgb(61.064148%, 61.16333%, 61.227417%)" stop-opacity="1"/>
<stop offset="0.0546875" stop-color="rgb(61.233521%, 61.341858%, 61.404419%)" stop-opacity="1"/>
<stop offset="0.0585938" stop-color="rgb(61.402893%, 61.51886%, 61.579895%)" stop-opacity="1"/>
<stop offset="0.0625" stop-color="rgb(61.572266%, 61.697388%, 61.732483%)" stop-opacity="1"/>
<stop offset="0.0664062" stop-color="rgb(61.743164%, 61.875916%, 61.849976%)" stop-opacity="1"/>
<stop offset="0.0703125" stop-color="rgb(61.912537%, 62.054443%, 61.959839%)" stop-opacity="1"/>
<stop offset="0.0742188" stop-color="rgb(62.083435%, 62.234497%, 62.069702%)" stop-opacity="1"/>
<stop offset="0.078125" stop-color="rgb(62.243652%, 62.402344%, 62.216187%)" stop-opacity="1"/>
<stop offset="0.0820312" stop-color="rgb(62.387085%, 62.553406%, 62.411499%)" stop-opacity="1"/>
<stop offset="0.0859375" stop-color="rgb(62.524414%, 62.698364%, 62.625122%)" stop-opacity="1"/>
<stop offset="0.0898438" stop-color="rgb(62.661743%, 62.843323%, 62.837219%)" stop-opacity="1"/>
<stop offset="0.09375" stop-color="rgb(62.837219%, 63.005066%, 63.038635%)" stop-opacity="1"/>
<stop offset="0.0976562" stop-color="rgb(63.07373%, 63.194275%, 63.221741%)" stop-opacity="1"/>
<stop offset="0.101562" stop-color="rgb(63.334656%, 63.392639%, 63.398743%)" stop-opacity="1"/>
<stop offset="0.105469" stop-color="rgb(63.595581%, 63.592529%, 63.577271%)" stop-opacity="1"/>
<stop offset="0.109375" stop-color="rgb(63.830566%, 63.809204%, 63.764954%)" stop-opacity="1"/>
<stop offset="0.113281" stop-color="rgb(64.022827%, 64.054871%, 63.969421%)" stop-opacity="1"/>
<stop offset="0.117188" stop-color="rgb(64.1922%, 64.31427%, 64.179993%)" stop-opacity="1"/>
<stop offset="0.121094" stop-color="rgb(64.364624%, 64.575195%, 64.39209%)" stop-opacity="1"/>
<stop offset="0.125" stop-color="rgb(64.558411%, 64.822388%, 64.596558%)" stop-opacity="1"/>
<stop offset="0.128906" stop-color="rgb(64.797974%, 65.040588%, 64.787292%)" stop-opacity="1"/>
<stop offset="0.132812" stop-color="rgb(65.060425%, 65.245056%, 64.968872%)" stop-opacity="1"/>
<stop offset="0.136719" stop-color="rgb(65.324402%, 65.449524%, 65.153503%)" stop-opacity="1"/>
<stop offset="0.140625" stop-color="rgb(65.568542%, 65.65094%, 65.338135%)" stop-opacity="1"/>
<stop offset="0.144531" stop-color="rgb(65.769958%, 65.846252%, 65.525818%)" stop-opacity="1"/>
<stop offset="0.148438" stop-color="rgb(65.943909%, 66.033936%, 65.715027%)" stop-opacity="1"/>
<stop offset="0.152344" stop-color="rgb(66.119385%, 66.22467%, 65.905762%)" stop-opacity="1"/>
<stop offset="0.15625" stop-color="rgb(66.294861%, 66.400146%, 66.078186%)" stop-opacity="1"/>
<stop offset="0.160156" stop-color="rgb(66.471863%, 66.537476%, 66.200256%)" stop-opacity="1"/>
<stop offset="0.164062" stop-color="rgb(66.648865%, 66.651917%, 66.293335%)" stop-opacity="1"/>
<stop offset="0.167969" stop-color="rgb(66.827393%, 66.764832%, 66.384888%)" stop-opacity="1"/>
<stop offset="0.171875" stop-color="rgb(67.004395%, 66.888428%, 66.491699%)" stop-opacity="1"/>
<stop offset="0.175781" stop-color="rgb(67.181396%, 67.054749%, 66.650391%)" stop-opacity="1"/>
<stop offset="0.179688" stop-color="rgb(67.356873%, 67.245483%, 66.842651%)" stop-opacity="1"/>
<stop offset="0.183594" stop-color="rgb(67.5354%, 67.43927%, 67.036438%)" stop-opacity="1"/>
<stop offset="0.1875" stop-color="rgb(67.710876%, 67.631531%, 67.230225%)" stop-opacity="1"/>
<stop offset="0.191406" stop-color="rgb(67.889404%, 67.825317%, 67.425537%)" stop-opacity="1"/>
<stop offset="0.195312" stop-color="rgb(68.06488%, 68.019104%, 67.62085%)" stop-opacity="1"/>
<stop offset="0.199219" stop-color="rgb(68.243408%, 68.214417%, 67.817688%)" stop-opacity="1"/>
<stop offset="0.203125" stop-color="rgb(68.42041%, 68.408203%, 68.013%)" stop-opacity="1"/>
<stop offset="0.207031" stop-color="rgb(68.598938%, 68.603516%, 68.211365%)" stop-opacity="1"/>
<stop offset="0.210938" stop-color="rgb(68.77594%, 68.798828%, 68.408203%)" stop-opacity="1"/>
<stop offset="0.214844" stop-color="rgb(68.955994%, 68.995667%, 68.606567%)" stop-opacity="1"/>
<stop offset="0.21875" stop-color="rgb(69.128418%, 69.186401%, 68.803406%)" stop-opacity="1"/>
<stop offset="0.222656" stop-color="rgb(69.258118%, 69.329834%, 68.989563%)" stop-opacity="1"/>
<stop offset="0.226562" stop-color="rgb(69.346619%, 69.430542%, 69.163513%)" stop-opacity="1"/>
<stop offset="0.230469" stop-color="rgb(69.436646%, 69.529724%, 69.337463%)" stop-opacity="1"/>
<stop offset="0.234375" stop-color="rgb(69.526672%, 69.631958%, 69.509888%)" stop-opacity="1"/>
<stop offset="0.238281" stop-color="rgb(69.664001%, 69.78302%, 69.659424%)" stop-opacity="1"/>
<stop offset="0.242188" stop-color="rgb(69.842529%, 69.979858%, 69.787598%)" stop-opacity="1"/>
<stop offset="0.246094" stop-color="rgb(70.024109%, 70.178223%, 69.915771%)" stop-opacity="1"/>
<stop offset="0.25" stop-color="rgb(70.202637%, 70.375061%, 70.043945%)" stop-opacity="1"/>
<stop offset="0.253906" stop-color="rgb(70.474243%, 70.594788%, 70.207214%)" stop-opacity="1"/>
<stop offset="0.261719" stop-color="rgb(70.835876%, 70.834351%, 70.405579%)" stop-opacity="1"/>
<stop offset="0.269531" stop-color="rgb(71.19751%, 71.153259%, 70.704651%)" stop-opacity="1"/>
<stop offset="0.277344" stop-color="rgb(71.559143%, 71.554565%, 71.113586%)" stop-opacity="1"/>
<stop offset="0.285156" stop-color="rgb(71.922302%, 71.885681%, 71.499634%)" stop-opacity="1"/>
<stop offset="0.292969" stop-color="rgb(72.285461%, 72.138977%, 71.856689%)" stop-opacity="1"/>
<stop offset="0.300781" stop-color="rgb(72.650146%, 72.45636%, 72.172546%)" stop-opacity="1"/>
<stop offset="0.308594" stop-color="rgb(73.014832%, 72.85614%, 72.444153%)" stop-opacity="1"/>
<stop offset="0.316406" stop-color="rgb(73.381042%, 73.196411%, 72.75238%)" stop-opacity="1"/>
<stop offset="0.324219" stop-color="rgb(73.745728%, 73.458862%, 73.109436%)" stop-opacity="1"/>
<stop offset="0.332031" stop-color="rgb(74.113464%, 73.777771%, 73.434448%)" stop-opacity="1"/>
<stop offset="0.339844" stop-color="rgb(74.481201%, 74.177551%, 73.71521%)" stop-opacity="1"/>
<stop offset="0.347656" stop-color="rgb(74.848938%, 74.526978%, 73.965454%)" stop-opacity="1"/>
<stop offset="0.355469" stop-color="rgb(75.216675%, 74.795532%, 74.183655%)" stop-opacity="1"/>
<stop offset="0.363281" stop-color="rgb(75.585938%, 75.112915%, 74.481201%)" stop-opacity="1"/>
<stop offset="0.371094" stop-color="rgb(75.956726%, 75.517273%, 74.891663%)" stop-opacity="1"/>
<stop offset="0.378906" stop-color="rgb(76.25885%, 75.863647%, 75.306702%)" stop-opacity="1"/>
<stop offset="0.386719" stop-color="rgb(76.469421%, 76.107788%, 75.692749%)" stop-opacity="1"/>
<stop offset="0.394531" stop-color="rgb(76.646423%, 76.296997%, 75.965881%)" stop-opacity="1"/>
<stop offset="0.398438" stop-color="rgb(76.870728%, 76.493835%, 76.123047%)" stop-opacity="1"/>
<stop offset="0.402344" stop-color="rgb(77.148438%, 76.728821%, 76.264954%)" stop-opacity="1"/>
<stop offset="0.40625" stop-color="rgb(77.427673%, 76.963806%, 76.40686%)" stop-opacity="1"/>
<stop offset="0.410156" stop-color="rgb(77.723694%, 77.288818%, 76.675415%)" stop-opacity="1"/>
<stop offset="0.417969" stop-color="rgb(77.973938%, 77.690125%, 77.099609%)" stop-opacity="1"/>
<stop offset="0.425781" stop-color="rgb(78.222656%, 78.038025%, 77.478027%)" stop-opacity="1"/>
<stop offset="0.433594" stop-color="rgb(78.564453%, 78.323364%, 77.74353%)" stop-opacity="1"/>
<stop offset="0.441406" stop-color="rgb(78.938293%, 78.640747%, 78.039551%)" stop-opacity="1"/>
<stop offset="0.449219" stop-color="rgb(79.315186%, 79.046631%, 78.453064%)" stop-opacity="1"/>
<stop offset="0.457031" stop-color="rgb(79.692078%, 79.43573%, 78.845215%)" stop-opacity="1"/>
<stop offset="0.464844" stop-color="rgb(80.06897%, 79.740906%, 79.124451%)" stop-opacity="1"/>
<stop offset="0.472656" stop-color="rgb(80.444336%, 80.056763%, 79.418945%)" stop-opacity="1"/>
<stop offset="0.480469" stop-color="rgb(80.82428%, 80.462646%, 79.832458%)" stop-opacity="1"/>
<stop offset="0.488281" stop-color="rgb(81.20575%, 80.909729%, 80.300903%)" stop-opacity="1"/>
<stop offset="0.496094" stop-color="rgb(81.587219%, 81.358337%, 80.770874%)" stop-opacity="1"/>
<stop offset="0.503906" stop-color="rgb(81.874084%, 81.695557%, 81.124878%)" stop-opacity="1"/>
<stop offset="0.507812" stop-color="rgb(82.064819%, 81.880188%, 81.34613%)" stop-opacity="1"/>
<stop offset="0.511719" stop-color="rgb(82.252502%, 82.022095%, 81.549072%)" stop-opacity="1"/>
<stop offset="0.515625" stop-color="rgb(82.443237%, 82.162476%, 81.752014%)" stop-opacity="1"/>
<stop offset="0.519531" stop-color="rgb(82.63092%, 82.302856%, 81.954956%)" stop-opacity="1"/>
<stop offset="0.523438" stop-color="rgb(82.873535%, 82.543945%, 82.240295%)" stop-opacity="1"/>
<stop offset="0.535156" stop-color="rgb(83.071899%, 82.774353%, 82.485962%)" stop-opacity="1"/>
<stop offset="0.539062" stop-color="rgb(83.209229%, 82.93457%, 82.621765%)" stop-opacity="1"/>
<stop offset="0.542969" stop-color="rgb(83.39386%, 83.151245%, 82.777405%)" stop-opacity="1"/>
<stop offset="0.546875" stop-color="rgb(83.587646%, 83.378601%, 82.93457%)" stop-opacity="1"/>
<stop offset="0.550781" stop-color="rgb(83.779907%, 83.604431%, 83.091736%)" stop-opacity="1"/>
<stop offset="0.554688" stop-color="rgb(83.972168%, 83.798218%, 83.236694%)" stop-opacity="1"/>
<stop offset="0.558594" stop-color="rgb(84.162903%, 83.94928%, 83.364868%)" stop-opacity="1"/>
<stop offset="0.5625" stop-color="rgb(84.353638%, 84.089661%, 83.486938%)" stop-opacity="1"/>
<stop offset="0.566406" stop-color="rgb(84.544373%, 84.230042%, 83.610535%)" stop-opacity="1"/>
<stop offset="0.570312" stop-color="rgb(84.736633%, 84.402466%, 83.778381%)" stop-opacity="1"/>
<stop offset="0.574219" stop-color="rgb(84.928894%, 84.620667%, 84.005737%)" stop-opacity="1"/>
<stop offset="0.578125" stop-color="rgb(85.124207%, 84.854126%, 84.251404%)" stop-opacity="1"/>
<stop offset="0.582031" stop-color="rgb(85.317993%, 85.08606%, 84.498596%)" stop-opacity="1"/>
<stop offset="0.585938" stop-color="rgb(85.513306%, 85.290527%, 84.706116%)" stop-opacity="1"/>
<stop offset="0.589844" stop-color="rgb(85.704041%, 85.449219%, 84.854126%)" stop-opacity="1"/>
<stop offset="0.59375" stop-color="rgb(85.896301%, 85.592651%, 84.979248%)" stop-opacity="1"/>
<stop offset="0.597656" stop-color="rgb(86.087036%, 85.734558%, 85.10437%)" stop-opacity="1"/>
<stop offset="0.601562" stop-color="rgb(86.347961%, 85.987854%, 85.354614%)" stop-opacity="1"/>
<stop offset="0.613281" stop-color="rgb(86.564636%, 86.228943%, 85.606384%)" stop-opacity="1"/>
<stop offset="0.617188" stop-color="rgb(86.688232%, 86.378479%, 85.765076%)" stop-opacity="1"/>
<stop offset="0.621094" stop-color="rgb(86.860657%, 86.585999%, 85.984802%)" stop-opacity="1"/>
<stop offset="0.625" stop-color="rgb(87.057495%, 86.82251%, 86.238098%)" stop-opacity="1"/>
<stop offset="0.628906" stop-color="rgb(87.350464%, 87.158203%, 86.58905%)" stop-opacity="1"/>
<stop offset="0.636719" stop-color="rgb(87.739563%, 87.519836%, 86.943054%)" stop-opacity="1"/>
<stop offset="0.644531" stop-color="rgb(88.1073%, 87.823486%, 87.210083%)" stop-opacity="1"/>
<stop offset="0.652344" stop-color="rgb(88.38501%, 88.192749%, 87.512207%)" stop-opacity="1"/>
<stop offset="0.660156" stop-color="rgb(88.589478%, 88.597107%, 87.852478%)" stop-opacity="1"/>
<stop offset="0.667969" stop-color="rgb(88.792419%, 88.917542%, 88.246155%)" stop-opacity="1"/>
<stop offset="0.675781" stop-color="rgb(89.002991%, 89.167786%, 88.668823%)" stop-opacity="1"/>
<stop offset="0.683594" stop-color="rgb(89.309692%, 89.445496%, 89.009094%)" stop-opacity="1"/>
<stop offset="0.691406" stop-color="rgb(89.697266%, 89.741516%, 89.274597%)" stop-opacity="1"/>
<stop offset="0.699219" stop-color="rgb(90.084839%, 90.040588%, 89.543152%)" stop-opacity="1"/>
<stop offset="0.707031" stop-color="rgb(90.466309%, 90.344238%, 89.813232%)" stop-opacity="1"/>
<stop offset="0.714844" stop-color="rgb(90.760803%, 90.711975%, 90.12146%)" stop-opacity="1"/>
<stop offset="0.722656" stop-color="rgb(90.9729%, 91.136169%, 90.466309%)" stop-opacity="1"/>
<stop offset="0.730469" stop-color="rgb(91.27655%, 91.505432%, 90.866089%)" stop-opacity="1"/>
<stop offset="0.738281" stop-color="rgb(91.665649%, 91.815186%, 91.317749%)" stop-opacity="1"/>
<stop offset="0.746094" stop-color="rgb(92.062378%, 92.219543%, 91.815186%)" stop-opacity="1"/>
<stop offset="0.761719" stop-color="rgb(92.358398%, 92.54303%, 92.152405%)" stop-opacity="1"/>
<stop offset="0.765625" stop-color="rgb(92.552185%, 92.697144%, 92.292786%)" stop-opacity="1"/>
<stop offset="0.769531" stop-color="rgb(92.749023%, 92.849731%, 92.430115%)" stop-opacity="1"/>
<stop offset="0.773438" stop-color="rgb(92.944336%, 93.002319%, 92.56897%)" stop-opacity="1"/>
<stop offset="0.777344" stop-color="rgb(93.09845%, 93.145752%, 92.747498%)" stop-opacity="1"/>
<stop offset="0.78125" stop-color="rgb(93.205261%, 93.276978%, 92.970276%)" stop-opacity="1"/>
<stop offset="0.785156" stop-color="rgb(93.305969%, 93.406677%, 93.197632%)" stop-opacity="1"/>
<stop offset="0.789062" stop-color="rgb(93.406677%, 93.534851%, 93.424988%)" stop-opacity="1"/>
<stop offset="0.792969" stop-color="rgb(93.545532%, 93.675232%, 93.618774%)" stop-opacity="1"/>
<stop offset="0.796875" stop-color="rgb(93.734741%, 93.829346%, 93.768311%)" stop-opacity="1"/>
<stop offset="0.800781" stop-color="rgb(93.93158%, 93.983459%, 93.908691%)" stop-opacity="1"/>
<stop offset="0.804688" stop-color="rgb(94.128418%, 94.137573%, 94.049072%)" stop-opacity="1"/>
<stop offset="0.808594" stop-color="rgb(94.325256%, 94.294739%, 94.226074%)" stop-opacity="1"/>
<stop offset="0.8125" stop-color="rgb(94.522095%, 94.454956%, 94.450378%)" stop-opacity="1"/>
<stop offset="0.816406" stop-color="rgb(94.818115%, 94.694519%, 94.802856%)" stop-opacity="1"/>
<stop offset="0.824219" stop-color="rgb(95.217896%, 95.091248%, 95.231628%)" stop-opacity="1"/>
<stop offset="0.832031" stop-color="rgb(95.623779%, 95.581055%, 95.610046%)" stop-opacity="1"/>
<stop offset="0.839844" stop-color="rgb(95.947266%, 95.982361%, 95.94574%)" stop-opacity="1"/>
<stop offset="0.847656" stop-color="rgb(96.273804%, 96.391296%, 96.376038%)" stop-opacity="1"/>
<stop offset="0.863281" stop-color="rgb(96.682739%, 96.907043%, 96.940613%)" stop-opacity="1"/>
<stop offset="0.878906" stop-color="rgb(97.061157%, 97.343445%, 97.407532%)" stop-opacity="1"/>
<stop offset="0.890625" stop-color="rgb(97.331238%, 97.55249%, 97.595215%)" stop-opacity="1"/>
<stop offset="0.894531" stop-color="rgb(97.523499%, 97.613525%, 97.605896%)" stop-opacity="1"/>
<stop offset="0.898438" stop-color="rgb(97.715759%, 97.673035%, 97.616577%)" stop-opacity="1"/>
<stop offset="0.902344" stop-color="rgb(97.993469%, 97.879028%, 97.796631%)" stop-opacity="1"/>
<stop offset="0.914062" stop-color="rgb(98.278809%, 98.184204%, 98.11554%)" stop-opacity="1"/>
<stop offset="0.921875" stop-color="rgb(98.484802%, 98.443604%, 98.400879%)" stop-opacity="1"/>
<stop offset="0.929688" stop-color="rgb(98.794556%, 98.83728%, 98.834229%)" stop-opacity="1"/>
<stop offset="0.945312" stop-color="rgb(99.156189%, 99.29657%, 99.339294%)" stop-opacity="1"/>
<stop offset="0.957031" stop-color="rgb(99.414062%, 99.62616%, 99.702454%)" stop-opacity="1"/>
<stop offset="0.964844" stop-color="rgb(99.714661%, 99.865723%, 99.92218%)" stop-opacity="1"/>
<stop offset="0.980469" stop-color="rgb(99.95575%, 99.984741%, 99.996948%)" stop-opacity="1"/>
<stop offset="1" stop-color="rgb(100%, 100%, 100%)" stop-opacity="1"/>
</radialGradient>
</defs>
<path fill-rule="nonzero" fill="rgb(12.860107%, 11.213684%, 11.195374%)" fill-opacity="1" d="M 816.554688 278.410156 L 816.554688 135.238281 L 835.988281 135.238281 L 911.183594 247.648438 L 911.183594 135.238281 L 929.347656 135.238281 L 929.347656 278.410156 L 909.914062 278.410156 L 834.71875 165.910156 L 834.71875 278.410156 L 816.554688 278.410156 "/>
<path fill-rule="nonzero" fill="rgb(12.860107%, 11.213684%, 11.195374%)" fill-opacity="1" d="M 972.21875 216.589844 L 1030.128906 216.589844 C 1029.351562 207.871094 1027.128906 201.328125 1023.488281 196.960938 C 1017.890625 190.191406 1010.628906 186.808594 1001.710938 186.808594 C 993.636719 186.808594 986.847656 189.511719 981.347656 194.910156 C 975.847656 200.320312 972.804688 207.539062 972.21875 216.589844 Z M 1029.929688 245.011719 L 1048.101562 247.261719 C 1045.230469 257.871094 1039.921875 266.101562 1032.179688 271.960938 C 1024.429688 277.820312 1014.53125 280.75 1002.488281 280.75 C 987.320312 280.75 975.292969 276.078125 966.40625 266.738281 C 957.519531 257.398438 953.074219 244.289062 953.074219 227.429688 C 953.074219 209.988281 957.566406 196.441406 966.554688 186.808594 C 975.539062 177.171875 987.191406 172.351562 1001.511719 172.351562 C 1015.378906 172.351562 1026.710938 177.078125 1035.5 186.511719 C 1044.289062 195.960938 1048.679688 209.238281 1048.679688 226.359375 C 1048.679688 227.398438 1048.648438 228.960938 1048.578125 231.050781 L 971.238281 231.050781 C 971.890625 242.441406 975.113281 251.160156 980.90625 257.21875 C 986.703125 263.269531 993.929688 266.300781 1002.589844 266.300781 C 1009.03125 266.300781 1014.53125 264.609375 1019.089844 261.21875 C 1023.648438 257.839844 1027.261719 252.429688 1029.929688 245.011719 "/>
<path fill-rule="nonzero" fill="rgb(12.860107%, 11.213684%, 11.195374%)" fill-opacity="1" d="M 1136.378906 226.359375 C 1130 228.960938 1120.429688 231.179688 1107.671875 233 C 1100.441406 234.039062 1095.328125 235.210938 1092.328125 236.511719 C 1089.339844 237.820312 1087.03125 239.71875 1085.398438 242.230469 C 1083.769531 244.730469 1082.960938 247.519531 1082.960938 250.578125 C 1082.960938 255.261719 1084.730469 259.171875 1088.28125 262.300781 C 1091.828125 265.421875 1097.019531 266.980469 1103.859375 266.980469 C 1110.628906 266.980469 1116.648438 265.5 1121.921875 262.539062 C 1127.199219 259.578125 1131.070312 255.519531 1133.550781 250.378906 C 1135.429688 246.410156 1136.378906 240.550781 1136.378906 232.800781 Z M 1137.839844 265.621094 C 1131.328125 271.148438 1125.058594 275.058594 1119.039062 277.339844 C 1113.019531 279.609375 1106.558594 280.75 1099.660156 280.75 C 1088.269531 280.75 1079.511719 277.96875 1073.390625 272.398438 C 1067.269531 266.839844 1064.210938 259.71875 1064.210938 251.058594 C 1064.210938 245.988281 1065.359375 241.351562 1067.679688 237.148438 C 1069.988281 232.949219 1073.011719 229.578125 1076.761719 227.039062 C 1080.5 224.5 1084.71875 222.578125 1089.398438 221.28125 C 1092.851562 220.371094 1098.058594 219.488281 1105.03125 218.640625 C 1119.21875 216.949219 1129.671875 214.929688 1136.378906 212.589844 C 1136.441406 210.179688 1136.480469 208.648438 1136.480469 208 C 1136.480469 200.839844 1134.808594 195.789062 1131.488281 192.859375 C 1127 188.890625 1120.328125 186.910156 1111.480469 186.910156 C 1103.210938 186.910156 1097.101562 188.359375 1093.160156 191.25 C 1089.21875 194.148438 1086.308594 199.269531 1084.421875 206.628906 L 1067.238281 204.289062 C 1068.800781 196.929688 1071.371094 190.988281 1074.949219 186.46875 C 1078.53125 181.941406 1083.710938 178.460938 1090.480469 176.019531 C 1097.25 173.570312 1105.089844 172.351562 1114.011719 172.351562 C 1122.871094 172.351562 1130.058594 173.398438 1135.601562 175.480469 C 1141.128906 177.558594 1145.199219 180.179688 1147.800781 183.339844 C 1150.410156 186.5 1152.230469 190.488281 1153.269531 195.300781 C 1153.859375 198.300781 1154.148438 203.699219 1154.148438 211.511719 L 1154.148438 234.949219 C 1154.148438 251.289062 1154.519531 261.628906 1155.269531 265.960938 C 1156.019531 270.289062 1157.5 274.441406 1159.71875 278.410156 L 1141.359375 278.410156 C 1139.53125 274.761719 1138.359375 270.5 1137.839844 265.621094 "/>
<path fill-rule="nonzero" fill="rgb(12.860107%, 11.213684%, 11.195374%)" fill-opacity="1" d="M 1181.199219 278.410156 L 1181.199219 174.699219 L 1197.019531 174.699219 L 1197.019531 190.421875 C 1201.058594 183.058594 1204.789062 178.210938 1208.199219 175.871094 C 1211.621094 173.53125 1215.378906 172.351562 1219.480469 172.351562 C 1225.410156 172.351562 1231.429688 174.238281 1237.550781 178.019531 L 1231.488281 194.328125 C 1227.199219 191.789062 1222.898438 190.519531 1218.601562 190.519531 C 1214.761719 190.519531 1211.308594 191.671875 1208.25 193.988281 C 1205.191406 196.300781 1203.011719 199.5 1201.710938 203.601562 C 1199.761719 209.851562 1198.78125 216.691406 1198.78125 224.109375 L 1198.78125 278.410156 L 1181.199219 278.410156 "/>
<path fill-rule="nonzero" fill="rgb(12.860107%, 11.213684%, 11.195374%)" fill-opacity="1" d="M 1241.160156 235.441406 L 1241.160156 217.761719 L 1295.171875 217.761719 L 1295.171875 235.441406 L 1241.160156 235.441406 "/>
<path fill-rule="nonzero" fill="rgb(12.860107%, 11.213684%, 11.195374%)" fill-opacity="1" d="M 1318.800781 278.410156 L 1318.800781 188.371094 L 1303.269531 188.371094 L 1303.269531 174.699219 L 1318.800781 174.699219 L 1318.800781 163.660156 C 1318.800781 156.699219 1319.421875 151.519531 1320.648438 148.140625 C 1322.351562 143.578125 1325.328125 139.878906 1329.589844 137.050781 C 1333.851562 134.21875 1339.828125 132.800781 1347.511719 132.800781 C 1352.460938 132.800781 1357.929688 133.390625 1363.921875 134.558594 L 1361.28125 149.890625 C 1357.628906 149.238281 1354.179688 148.921875 1350.929688 148.921875 C 1345.589844 148.921875 1341.808594 150.058594 1339.601562 152.339844 C 1337.390625 154.609375 1336.28125 158.878906 1336.28125 165.128906 L 1336.28125 174.699219 L 1356.488281 174.699219 L 1356.488281 188.371094 L 1336.28125 188.371094 L 1336.28125 278.410156 L 1318.800781 278.410156 "/>
<path fill-rule="nonzero" fill="rgb(12.860107%, 11.213684%, 11.195374%)" fill-opacity="1" d="M 1370.261719 278.410156 L 1370.261719 174.699219 L 1387.839844 174.699219 L 1387.839844 278.410156 Z M 1370.261719 155.460938 L 1370.261719 135.238281 L 1387.839844 135.238281 L 1387.839844 155.460938 L 1370.261719 155.460938 "/>
<path fill-rule="nonzero" fill="rgb(12.860107%, 11.213684%, 11.195374%)" fill-opacity="1" d="M 1427.878906 216.589844 L 1485.789062 216.589844 C 1485.011719 207.871094 1482.800781 201.328125 1479.148438 196.960938 C 1473.550781 190.191406 1466.289062 186.808594 1457.371094 186.808594 C 1449.300781 186.808594 1442.511719 189.511719 1437.011719 194.910156 C 1431.511719 200.320312 1428.46875 207.539062 1427.878906 216.589844 Z M 1485.601562 245.011719 L 1503.761719 247.261719 C 1500.890625 257.871094 1495.589844 266.101562 1487.839844 271.960938 C 1480.089844 277.820312 1470.199219 280.75 1458.148438 280.75 C 1442.980469 280.75 1430.960938 276.078125 1422.070312 266.738281 C 1413.179688 257.398438 1408.738281 244.289062 1408.738281 227.429688 C 1408.738281 209.988281 1413.230469 196.441406 1422.21875 186.808594 C 1431.199219 177.171875 1442.851562 172.351562 1457.179688 172.351562 C 1471.050781 172.351562 1482.371094 177.078125 1491.160156 186.511719 C 1499.949219 195.960938 1504.351562 209.238281 1504.351562 226.359375 C 1504.351562 227.398438 1504.308594 228.960938 1504.25 231.050781 L 1426.898438 231.050781 C 1427.550781 242.441406 1430.78125 251.160156 1436.570312 257.21875 C 1442.371094 263.269531 1449.589844 266.300781 1458.25 266.300781 C 1464.699219 266.300781 1470.199219 264.609375 1474.761719 261.21875 C 1479.308594 257.839844 1482.929688 252.429688 1485.601562 245.011719 "/>
<path fill-rule="nonzero" fill="rgb(12.860107%, 11.213684%, 11.195374%)" fill-opacity="1" d="M 1525.441406 278.410156 L 1525.441406 135.238281 L 1543.019531 135.238281 L 1543.019531 278.410156 L 1525.441406 278.410156 "/>
<path fill-rule="nonzero" fill="rgb(12.860107%, 11.213684%, 11.195374%)" fill-opacity="1" d="M 1581.980469 226.648438 C 1581.980469 239.929688 1584.78125 249.859375 1590.378906 256.441406 C 1595.980469 263.011719 1602.589844 266.300781 1610.210938 266.300781 C 1617.890625 266.300781 1624.410156 263.160156 1629.789062 256.878906 C 1635.160156 250.589844 1637.839844 241.011719 1637.839844 228.121094 C 1637.839844 213.921875 1635.109375 203.511719 1629.640625 196.871094 C 1624.171875 190.230469 1617.429688 186.910156 1609.421875 186.910156 C 1601.609375 186.910156 1595.078125 190.101562 1589.839844 196.480469 C 1584.601562 202.859375 1581.980469 212.921875 1581.980469 226.648438 Z M 1637.550781 278.410156 L 1637.550781 265.320312 C 1630.96875 275.609375 1621.300781 280.75 1608.550781 280.75 C 1600.28125 280.75 1592.679688 278.46875 1585.738281 273.921875 C 1578.808594 269.359375 1573.441406 263 1569.628906 254.820312 C 1565.820312 246.660156 1563.921875 237.261719 1563.921875 226.648438 C 1563.921875 216.300781 1565.640625 206.910156 1569.089844 198.480469 C 1572.539062 190.050781 1577.71875 183.589844 1584.621094 179.089844 C 1591.519531 174.601562 1599.230469 172.351562 1607.761719 172.351562 C 1614.011719 172.351562 1619.578125 173.671875 1624.460938 176.308594 C 1629.351562 178.949219 1633.320312 182.378906 1636.378906 186.609375 L 1636.378906 135.238281 L 1653.859375 135.238281 L 1653.859375 278.410156 L 1637.550781 278.410156 "/>
<path fill-rule="nonzero" fill="rgb(12.860107%, 11.213684%, 11.195374%)" fill-opacity="1" d="M 1804.738281 240.421875 L 1822.019531 242.671875 C 1820.128906 254.578125 1815.300781 263.910156 1807.519531 270.648438 C 1799.738281 277.378906 1790.191406 280.75 1778.859375 280.75 C 1764.660156 280.75 1753.25 276.109375 1744.628906 266.839844 C 1736 257.558594 1731.691406 244.261719 1731.691406 226.941406 C 1731.691406 215.75 1733.550781 205.949219 1737.261719 197.550781 C 1740.96875 189.148438 1746.609375 182.851562 1754.199219 178.648438 C 1761.78125 174.449219 1770.03125 172.351562 1778.960938 172.351562 C 1790.21875 172.351562 1799.429688 175.199219 1806.589844 180.898438 C 1813.75 186.601562 1818.339844 194.691406 1820.359375 205.171875 L 1803.269531 207.800781 C 1801.640625 200.839844 1798.761719 195.601562 1794.628906 192.078125 C 1790.488281 188.558594 1785.5 186.808594 1779.640625 186.808594 C 1770.78125 186.808594 1763.589844 189.980469 1758.058594 196.328125 C 1752.519531 202.679688 1749.761719 212.71875 1749.761719 226.460938 C 1749.761719 240.390625 1752.421875 250.511719 1757.761719 256.828125 C 1763.101562 263.140625 1770.070312 266.300781 1778.660156 266.300781 C 1785.558594 266.300781 1791.320312 264.191406 1795.949219 259.949219 C 1800.570312 255.71875 1803.5 249.210938 1804.738281 240.421875 "/>
<path fill-rule="nonzero" fill="rgb(12.860107%, 11.213684%, 11.195374%)" fill-opacity="1" d="M 1848.578125 226.550781 C 1848.578125 239.839844 1851.480469 249.78125 1857.28125 256.390625 C 1863.070312 263 1870.359375 266.300781 1879.148438 266.300781 C 1887.871094 266.300781 1895.128906 262.980469 1900.929688 256.339844 C 1906.71875 249.699219 1909.621094 239.578125 1909.621094 225.96875 C 1909.621094 213.140625 1906.699219 203.429688 1900.878906 196.820312 C 1895.050781 190.210938 1887.808594 186.910156 1879.148438 186.910156 C 1870.359375 186.910156 1863.070312 190.191406 1857.28125 196.769531 C 1851.480469 203.339844 1848.578125 213.269531 1848.578125 226.550781 Z M 1830.519531 226.550781 C 1830.519531 207.351562 1835.851562 193.121094 1846.53125 183.878906 C 1855.449219 176.199219 1866.320312 172.351562 1879.148438 172.351562 C 1893.410156 172.351562 1905.058594 177.03125 1914.109375 186.371094 C 1923.160156 195.710938 1927.691406 208.621094 1927.691406 225.089844 C 1927.691406 238.441406 1925.679688 248.929688 1921.679688 256.578125 C 1917.679688 264.230469 1911.851562 270.171875 1904.199219 274.410156 C 1896.550781 278.640625 1888.199219 280.75 1879.148438 280.75 C 1864.628906 280.75 1852.898438 276.101562 1843.949219 266.789062 C 1834.988281 257.480469 1830.519531 244.070312 1830.519531 226.550781 "/>
<path fill-rule="nonzero" fill="rgb(12.860107%, 11.213684%, 11.195374%)" fill-opacity="1" d="M 1948.289062 278.410156 L 1948.289062 174.699219 L 1964.011719 174.699219 L 1964.011719 189.25 C 1967.269531 184.171875 1971.601562 180.089844 1977 176.988281 C 1982.410156 173.898438 1988.558594 172.351562 1995.460938 172.351562 C 2003.140625 172.351562 2009.441406 173.949219 2014.359375 177.140625 C 2019.269531 180.328125 2022.738281 184.789062 2024.761719 190.519531 C 2032.960938 178.410156 2043.640625 172.351562 2056.789062 172.351562 C 2067.070312 172.351562 2074.980469 175.199219 2080.519531 180.898438 C 2086.050781 186.601562 2088.820312 195.371094 2088.820312 207.21875 L 2088.820312 278.410156 L 2071.339844 278.410156 L 2071.339844 213.078125 C 2071.339844 206.050781 2070.769531 200.980469 2069.628906 197.890625 C 2068.488281 194.800781 2066.421875 192.308594 2063.429688 190.421875 C 2060.429688 188.53125 2056.921875 187.589844 2052.878906 187.589844 C 2045.589844 187.589844 2039.53125 190.011719 2034.71875 194.859375 C 2029.898438 199.710938 2027.488281 207.480469 2027.488281 218.160156 L 2027.488281 278.410156 L 2009.910156 278.410156 L 2009.910156 211.03125 C 2009.910156 203.210938 2008.480469 197.351562 2005.621094 193.449219 C 2002.75 189.539062 1998.058594 187.589844 1991.550781 187.589844 C 1986.601562 187.589844 1982.03125 188.890625 1977.828125 191.488281 C 1973.628906 194.101562 1970.589844 197.910156 1968.699219 202.921875 C 1966.808594 207.941406 1965.871094 215.160156 1965.871094 224.601562 L 1965.871094 278.410156 L 1948.289062 278.410156 "/>
<path fill-rule="nonzero" fill="rgb(12.860107%, 11.213684%, 11.195374%)" fill-opacity="1" d="M 2114.890625 278.410156 L 2114.890625 174.699219 L 2130.621094 174.699219 L 2130.621094 189.25 C 2133.871094 184.171875 2138.199219 180.089844 2143.601562 176.988281 C 2149.011719 173.898438 2155.160156 172.351562 2162.058594 172.351562 C 2169.738281 172.351562 2176.039062 173.949219 2180.960938 177.140625 C 2185.871094 180.328125 2189.339844 184.789062 2191.359375 190.519531 C 2199.558594 178.410156 2210.238281 172.351562 2223.390625 172.351562 C 2233.671875 172.351562 2241.578125 175.199219 2247.121094 180.898438 C 2252.648438 186.601562 2255.421875 195.371094 2255.421875 207.21875 L 2255.421875 278.410156 L 2237.941406 278.410156 L 2237.941406 213.078125 C 2237.941406 206.050781 2237.371094 200.980469 2236.230469 197.890625 C 2235.089844 194.800781 2233.019531 192.308594 2230.03125 190.421875 C 2227.03125 188.53125 2223.519531 187.589844 2219.480469 187.589844 C 2212.191406 187.589844 2206.140625 190.011719 2201.320312 194.859375 C 2196.5 199.710938 2194.089844 207.480469 2194.089844 218.160156 L 2194.089844 278.410156 L 2176.511719 278.410156 L 2176.511719 211.03125 C 2176.511719 203.210938 2175.078125 197.351562 2172.21875 193.449219 C 2169.351562 189.539062 2164.660156 187.589844 2158.148438 187.589844 C 2153.210938 187.589844 2148.628906 188.890625 2144.429688 191.488281 C 2140.230469 194.101562 2137.191406 197.910156 2135.300781 202.921875 C 2133.410156 207.941406 2132.46875 215.160156 2132.46875 224.601562 L 2132.46875 278.410156 L 2114.890625 278.410156 "/>
<path fill-rule="nonzero" fill="rgb(12.860107%, 11.213684%, 11.195374%)" fill-opacity="1" d="M 2349.460938 278.410156 L 2349.460938 263.171875 C 2341.390625 274.890625 2330.421875 280.75 2316.550781 280.75 C 2310.429688 280.75 2304.71875 279.578125 2299.410156 277.238281 C 2294.109375 274.890625 2290.171875 271.949219 2287.601562 268.398438 C 2285.019531 264.851562 2283.21875 260.511719 2282.179688 255.359375 C 2281.460938 251.910156 2281.101562 246.441406 2281.101562 238.960938 L 2281.101562 174.699219 L 2298.679688 174.699219 L 2298.679688 232.21875 C 2298.679688 241.398438 2299.039062 247.578125 2299.761719 250.769531 C 2300.859375 255.398438 2303.210938 259.019531 2306.789062 261.660156 C 2310.371094 264.300781 2314.800781 265.621094 2320.070312 265.621094 C 2325.339844 265.621094 2330.289062 264.269531 2334.910156 261.558594 C 2339.53125 258.859375 2342.808594 255.179688 2344.730469 250.53125 C 2346.648438 245.871094 2347.609375 239.121094 2347.609375 230.261719 L 2347.609375 174.699219 L 2365.191406 174.699219 L 2365.191406 278.410156 L 2349.460938 278.410156 "/>
<path fill-rule="nonzero" fill="rgb(12.860107%, 11.213684%, 11.195374%)" fill-opacity="1" d="M 2392.730469 278.410156 L 2392.730469 174.699219 L 2408.550781 174.699219 L 2408.550781 189.441406 C 2416.160156 178.050781 2427.160156 172.351562 2441.550781 172.351562 C 2447.800781 172.351562 2453.550781 173.480469 2458.789062 175.71875 C 2464.03125 177.96875 2467.949219 180.921875 2470.558594 184.558594 C 2473.160156 188.210938 2474.980469 192.539062 2476.03125 197.550781 C 2476.679688 200.808594 2477 206.5 2477 214.640625 L 2477 278.410156 L 2459.421875 278.410156 L 2459.421875 215.320312 C 2459.421875 208.160156 2458.738281 202.808594 2457.371094 199.261719 C 2456.011719 195.710938 2453.578125 192.878906 2450.101562 190.761719 C 2446.609375 188.648438 2442.53125 187.589844 2437.839844 187.589844 C 2430.351562 187.589844 2423.890625 189.96875 2418.460938 194.71875 C 2413.019531 199.46875 2410.300781 208.488281 2410.300781 221.769531 L 2410.300781 278.410156 L 2392.730469 278.410156 "/>
<path fill-rule="nonzero" fill="rgb(12.860107%, 11.213684%, 11.195374%)" fill-opacity="1" d="M 2504.050781 278.410156 L 2504.050781 174.699219 L 2521.628906 174.699219 L 2521.628906 278.410156 Z M 2504.050781 155.460938 L 2504.050781 135.238281 L 2521.628906 135.238281 L 2521.628906 155.460938 L 2504.050781 155.460938 "/>
<path fill-rule="nonzero" fill="rgb(12.860107%, 11.213684%, 11.195374%)" fill-opacity="1" d="M 2616.058594 240.421875 L 2633.351562 242.671875 C 2631.460938 254.578125 2626.628906 263.910156 2618.851562 270.648438 C 2611.070312 277.378906 2601.511719 280.75 2590.191406 280.75 C 2575.988281 280.75 2564.578125 276.109375 2555.960938 266.839844 C 2547.328125 257.558594 2543.019531 244.261719 2543.019531 226.941406 C 2543.019531 215.75 2544.871094 205.949219 2548.578125 197.550781 C 2552.289062 189.148438 2557.941406 182.851562 2565.53125 178.648438 C 2573.109375 174.449219 2581.359375 172.351562 2590.28125 172.351562 C 2601.550781 172.351562 2610.761719 175.199219 2617.921875 180.898438 C 2625.078125 186.601562 2629.671875 194.691406 2631.691406 205.171875 L 2614.601562 207.800781 C 2612.96875 200.839844 2610.089844 195.601562 2605.960938 192.078125 C 2601.820312 188.558594 2596.828125 186.808594 2590.96875 186.808594 C 2582.109375 186.808594 2574.921875 189.980469 2569.378906 196.328125 C 2563.851562 202.679688 2561.078125 212.71875 2561.078125 226.460938 C 2561.078125 240.390625 2563.75 250.511719 2569.089844 256.828125 C 2574.429688 263.140625 2581.398438 266.300781 2589.988281 266.300781 C 2596.890625 266.300781 2602.648438 264.191406 2607.28125 259.949219 C 2611.898438 255.71875 2614.828125 249.210938 2616.058594 240.421875 "/>
<path fill-rule="nonzero" fill="rgb(12.860107%, 11.213684%, 11.195374%)" fill-opacity="1" d="M 2714.601562 226.359375 C 2708.21875 228.960938 2698.648438 231.179688 2685.890625 233 C 2678.660156 234.039062 2673.550781 235.210938 2670.558594 236.511719 C 2667.558594 237.820312 2665.25 239.71875 2663.621094 242.230469 C 2662 244.730469 2661.179688 247.519531 2661.179688 250.578125 C 2661.179688 255.261719 2662.960938 259.171875 2666.5 262.300781 C 2670.050781 265.421875 2675.238281 266.980469 2682.078125 266.980469 C 2688.851562 266.980469 2694.871094 265.5 2700.148438 262.539062 C 2705.421875 259.578125 2709.289062 255.519531 2711.769531 250.378906 C 2713.660156 246.410156 2714.601562 240.550781 2714.601562 232.800781 Z M 2716.058594 265.621094 C 2709.550781 271.148438 2703.289062 275.058594 2697.269531 277.339844 C 2691.238281 279.609375 2684.78125 280.75 2677.878906 280.75 C 2666.488281 280.75 2657.730469 277.96875 2651.609375 272.398438 C 2645.488281 266.839844 2642.429688 259.71875 2642.429688 251.058594 C 2642.429688 245.988281 2643.589844 241.351562 2645.898438 237.148438 C 2648.210938 232.949219 2651.238281 229.578125 2654.980469 227.039062 C 2658.71875 224.5 2662.941406 222.578125 2667.628906 221.28125 C 2671.078125 220.371094 2676.289062 219.488281 2683.25 218.640625 C 2697.441406 216.949219 2707.890625 214.929688 2714.601562 212.589844 C 2714.660156 210.179688 2714.699219 208.648438 2714.699219 208 C 2714.699219 200.839844 2713.039062 195.789062 2709.71875 192.859375 C 2705.21875 188.890625 2698.550781 186.910156 2689.699219 186.910156 C 2681.429688 186.910156 2675.328125 188.359375 2671.390625 191.25 C 2667.449219 194.148438 2664.53125 199.269531 2662.648438 206.628906 L 2645.460938 204.289062 C 2647.019531 196.929688 2649.589844 190.988281 2653.171875 186.46875 C 2656.75 181.941406 2661.929688 178.460938 2668.699219 176.019531 C 2675.46875 173.570312 2683.320312 172.351562 2692.238281 172.351562 C 2701.089844 172.351562 2708.28125 173.398438 2713.820312 175.480469 C 2719.351562 177.558594 2723.421875 180.179688 2726.03125 183.339844 C 2728.628906 186.5 2730.449219 190.488281 2731.488281 195.300781 C 2732.078125 198.300781 2732.371094 203.699219 2732.371094 211.511719 L 2732.371094 234.949219 C 2732.371094 251.289062 2732.75 261.628906 2733.5 265.960938 C 2734.238281 270.289062 2735.730469 274.441406 2737.941406 278.410156 L 2719.578125 278.410156 C 2717.761719 274.761719 2716.578125 270.5 2716.058594 265.621094 "/>
<path fill-rule="nonzero" fill="rgb(12.860107%, 11.213684%, 11.195374%)" fill-opacity="1" d="M 2798 262.691406 L 2800.539062 278.210938 C 2795.589844 279.25 2791.160156 279.78125 2787.261719 279.78125 C 2780.878906 279.78125 2775.929688 278.769531 2772.410156 276.75 C 2768.898438 274.730469 2766.421875 272.078125 2764.988281 268.789062 C 2763.558594 265.5 2762.839844 258.589844 2762.839844 248.039062 L 2762.839844 188.371094 L 2749.949219 188.371094 L 2749.949219 174.699219 L 2762.839844 174.699219 L 2762.839844 149.011719 L 2780.320312 138.46875 L 2780.320312 174.699219 L 2798 174.699219 L 2798 188.371094 L 2780.320312 188.371094 L 2780.320312 249.011719 C 2780.320312 254.03125 2780.628906 257.25 2781.25 258.679688 C 2781.871094 260.109375 2782.878906 261.261719 2784.28125 262.101562 C 2785.679688 262.949219 2787.679688 263.371094 2790.28125 263.371094 C 2792.238281 263.371094 2794.808594 263.140625 2798 262.691406 "/>
<path fill-rule="nonzero" fill="rgb(12.860107%, 11.213684%, 11.195374%)" fill-opacity="1" d="M 2815.28125 278.410156 L 2815.28125 174.699219 L 2832.859375 174.699219 L 2832.859375 278.410156 Z M 2815.28125 155.460938 L 2815.28125 135.238281 L 2832.859375 135.238281 L 2832.859375 155.460938 L 2815.28125 155.460938 "/>
<path fill-rule="nonzero" fill="rgb(12.860107%, 11.213684%, 11.195374%)" fill-opacity="1" d="M 2871.140625 226.550781 C 2871.140625 239.839844 2874.039062 249.78125 2879.828125 256.390625 C 2885.628906 263 2892.921875 266.300781 2901.710938 266.300781 C 2910.429688 266.300781 2917.691406 262.980469 2923.488281 256.339844 C 2929.28125 249.699219 2932.179688 239.578125 2932.179688 225.96875 C 2932.179688 213.140625 2929.261719 203.429688 2923.441406 196.820312 C 2917.609375 190.210938 2910.371094 186.910156 2901.710938 186.910156 C 2892.921875 186.910156 2885.628906 190.191406 2879.828125 196.769531 C 2874.039062 203.339844 2871.140625 213.269531 2871.140625 226.550781 Z M 2853.078125 226.550781 C 2853.078125 207.351562 2858.410156 193.121094 2869.089844 183.878906 C 2878.011719 176.199219 2888.878906 172.351562 2901.710938 172.351562 C 2915.96875 172.351562 2927.621094 177.03125 2936.671875 186.371094 C 2945.71875 195.710938 2950.238281 208.621094 2950.238281 225.089844 C 2950.238281 238.441406 2948.238281 248.929688 2944.238281 256.578125 C 2940.230469 264.230469 2934.410156 270.171875 2926.761719 274.410156 C 2919.109375 278.640625 2910.761719 280.75 2901.710938 280.75 C 2887.191406 280.75 2875.460938 276.101562 2866.5 266.789062 C 2857.550781 257.480469 2853.078125 244.070312 2853.078125 226.550781 "/>
<path fill-rule="nonzero" fill="rgb(12.860107%, 11.213684%, 11.195374%)" fill-opacity="1" d="M 2970.851562 278.410156 L 2970.851562 174.699219 L 2986.671875 174.699219 L 2986.671875 189.441406 C 2994.289062 178.050781 3005.289062 172.351562 3019.679688 172.351562 C 3025.929688 172.351562 3031.671875 173.480469 3036.910156 175.71875 C 3042.148438 177.96875 3046.078125 180.921875 3048.679688 184.558594 C 3051.289062 188.210938 3053.109375 192.539062 3054.148438 197.550781 C 3054.800781 200.808594 3055.128906 206.5 3055.128906 214.640625 L 3055.128906 278.410156 L 3037.550781 278.410156 L 3037.550781 215.320312 C 3037.550781 208.160156 3036.871094 202.808594 3035.5 199.261719 C 3034.128906 195.710938 3031.710938 192.878906 3028.21875 190.761719 C 3024.738281 188.648438 3020.648438 187.589844 3015.96875 187.589844 C 3008.480469 187.589844 3002.019531 189.96875 2996.578125 194.71875 C 2991.148438 199.46875 2988.429688 208.488281 2988.429688 221.769531 L 2988.429688 278.410156 L 2970.851562 278.410156 "/>
<path fill-rule="nonzero" fill="rgb(12.860107%, 11.213684%, 11.195374%)" fill-opacity="1" d="M 3171.238281 320.5 C 3161.539062 308.261719 3153.339844 293.941406 3146.628906 277.53125 C 3139.921875 261.121094 3136.570312 244.128906 3136.570312 226.550781 C 3136.570312 211.058594 3139.078125 196.21875 3144.089844 182.019531 C 3149.949219 165.550781 3159 149.148438 3171.238281 132.800781 L 3183.839844 132.800781 C 3175.960938 146.351562 3170.75 156.011719 3168.210938 161.808594 C 3164.238281 170.789062 3161.121094 180.171875 3158.839844 189.929688 C 3156.039062 202.109375 3154.640625 214.351562 3154.640625 226.648438 C 3154.640625 257.96875 3164.371094 289.25 3183.839844 320.5 L 3171.238281 320.5 "/>
<path fill-rule="nonzero" fill="rgb(12.860107%, 11.213684%, 11.195374%)" fill-opacity="1" d="M 3206.300781 278.410156 L 3206.300781 135.238281 L 3225.730469 135.238281 L 3300.929688 247.648438 L 3300.929688 135.238281 L 3319.089844 135.238281 L 3319.089844 278.410156 L 3299.660156 278.410156 L 3224.460938 165.910156 L 3224.460938 278.410156 L 3206.300781 278.410156 "/>
<path fill-rule="nonzero" fill="rgb(12.860107%, 11.213684%, 11.195374%)" fill-opacity="1" d="M 3351.898438 278.410156 L 3351.898438 135.238281 L 3448.488281 135.238281 L 3448.488281 152.140625 L 3370.851562 152.140625 L 3370.851562 196.480469 L 3438.039062 196.480469 L 3438.039062 213.371094 L 3370.851562 213.371094 L 3370.851562 278.410156 L 3351.898438 278.410156 "/>
<path fill-rule="nonzero" fill="rgb(12.860107%, 11.213684%, 11.195374%)" fill-opacity="1" d="M 3575.238281 228.210938 L 3594.191406 233 C 3590.21875 248.558594 3583.070312 260.421875 3572.75 268.589844 C 3562.429688 276.769531 3549.820312 280.851562 3534.910156 280.851562 C 3519.480469 280.851562 3506.929688 277.710938 3497.269531 271.429688 C 3487.601562 265.140625 3480.238281 256.050781 3475.199219 244.128906 C 3470.148438 232.21875 3467.628906 219.421875 3467.628906 205.75 C 3467.628906 190.839844 3470.46875 177.839844 3476.171875 166.738281 C 3481.871094 155.640625 3489.96875 147.210938 3500.488281 141.449219 C 3511 135.691406 3522.570312 132.800781 3535.210938 132.800781 C 3549.53125 132.800781 3561.570312 136.449219 3571.339844 143.738281 C 3581.101562 151.03125 3587.910156 161.289062 3591.75 174.5 L 3573.101562 178.898438 C 3569.78125 168.480469 3564.960938 160.898438 3558.640625 156.140625 C 3552.328125 151.390625 3544.378906 149.011719 3534.808594 149.011719 C 3523.808594 149.011719 3514.621094 151.648438 3507.230469 156.921875 C 3499.839844 162.199219 3494.640625 169.28125 3491.648438 178.160156 C 3488.660156 187.050781 3487.160156 196.21875 3487.160156 205.660156 C 3487.160156 217.828125 3488.929688 228.460938 3492.480469 237.539062 C 3496.03125 246.621094 3501.550781 253.410156 3509.03125 257.898438 C 3516.519531 262.390625 3524.628906 264.640625 3533.351562 264.640625 C 3543.960938 264.640625 3552.949219 261.578125 3560.300781 255.460938 C 3567.660156 249.339844 3572.640625 240.261719 3575.238281 228.210938 "/>
<path fill-rule="nonzero" fill="rgb(12.860107%, 11.213684%, 11.195374%)" fill-opacity="1" d="M 3626.808594 320.5 L 3614.210938 320.5 C 3633.671875 289.25 3643.410156 257.96875 3643.410156 226.648438 C 3643.410156 214.410156 3642.011719 202.269531 3639.210938 190.230469 C 3637 180.460938 3633.898438 171.089844 3629.929688 162.101562 C 3627.390625 156.238281 3622.148438 146.480469 3614.210938 132.800781 L 3626.808594 132.800781 C 3639.050781 149.148438 3648.101562 165.550781 3653.960938 182.019531 C 3658.96875 196.21875 3661.46875 211.058594 3661.46875 226.550781 C 3661.46875 244.128906 3658.109375 261.121094 3651.371094 277.53125 C 3644.628906 293.941406 3636.441406 308.261719 3626.808594 320.5 "/>
<path fill-rule="nonzero" fill="rgb(12.860107%, 11.213684%, 11.195374%)" fill-opacity="1" d="M 3737.550781 278.410156 L 3737.550781 174.699219 L 3755.128906 174.699219 L 3755.128906 278.410156 Z M 3737.550781 155.460938 L 3737.550781 135.238281 L 3755.128906 135.238281 L 3755.128906 155.460938 L 3737.550781 155.460938 "/>
<path fill-rule="nonzero" fill="rgb(12.860107%, 11.213684%, 11.195374%)" fill-opacity="1" d="M 3849.558594 240.421875 L 3866.851562 242.671875 C 3864.960938 254.578125 3860.121094 263.910156 3852.339844 270.648438 C 3844.558594 277.378906 3835.011719 280.75 3823.679688 280.75 C 3809.488281 280.75 3798.078125 276.109375 3789.449219 266.839844 C 3780.828125 257.558594 3776.511719 244.261719 3776.511719 226.941406 C 3776.511719 215.75 3778.371094 205.949219 3782.078125 197.550781 C 3785.789062 189.148438 3791.441406 182.851562 3799.019531 178.648438 C 3806.609375 174.449219 3814.859375 172.351562 3823.78125 172.351562 C 3835.039062 172.351562 3844.25 175.199219 3851.421875 180.898438 C 3858.578125 186.601562 3863.171875 194.691406 3865.191406 205.171875 L 3848.101562 207.800781 C 3846.46875 200.839844 3843.589844 195.601562 3839.449219 192.078125 C 3835.320312 188.558594 3830.320312 186.808594 3824.460938 186.808594 C 3815.609375 186.808594 3808.410156 189.980469 3802.878906 196.328125 C 3797.351562 202.679688 3794.578125 212.71875 3794.578125 226.460938 C 3794.578125 240.390625 3797.25 250.511719 3802.589844 256.828125 C 3807.929688 263.140625 3814.890625 266.300781 3823.488281 266.300781 C 3830.390625 266.300781 3836.148438 264.191406 3840.769531 259.949219 C 3845.390625 255.71875 3848.320312 249.210938 3849.558594 240.421875 "/>
<path fill-rule="nonzero" fill="rgb(12.860107%, 11.213684%, 11.195374%)" fill-opacity="1" d="M 3893.410156 226.550781 C 3893.410156 239.839844 3896.300781 249.78125 3902.101562 256.390625 C 3907.890625 263 3915.191406 266.300781 3923.96875 266.300781 C 3932.699219 266.300781 3939.960938 262.980469 3945.75 256.339844 C 3951.550781 249.699219 3954.441406 239.578125 3954.441406 225.96875 C 3954.441406 213.140625 3951.53125 203.429688 3945.699219 196.820312 C 3939.878906 190.210938 3932.628906 186.910156 3923.96875 186.910156 C 3915.191406 186.910156 3907.890625 190.191406 3902.101562 196.769531 C 3896.300781 203.339844 3893.410156 213.269531 3893.410156 226.550781 Z M 3875.339844 226.550781 C 3875.339844 207.351562 3880.679688 193.121094 3891.359375 183.878906 C 3900.28125 176.199219 3911.148438 172.351562 3923.96875 172.351562 C 3938.230469 172.351562 3949.890625 177.03125 3958.941406 186.371094 C 3967.980469 195.710938 3972.511719 208.621094 3972.511719 225.089844 C 3972.511719 238.441406 3970.511719 248.929688 3966.5 256.578125 C 3962.5 264.230469 3956.671875 270.171875 3949.019531 274.410156 C 3941.371094 278.640625 3933.019531 280.75 3923.96875 280.75 C 3909.460938 280.75 3897.71875 276.101562 3888.769531 266.789062 C 3879.820312 257.480469 3875.339844 244.070312 3875.339844 226.550781 "/>
<path fill-rule="nonzero" fill="rgb(12.860107%, 11.213684%, 11.195374%)" fill-opacity="1" d="M 3993.121094 278.410156 L 3993.121094 174.699219 L 4008.941406 174.699219 L 4008.941406 189.441406 C 4016.550781 178.050781 4027.550781 172.351562 4041.941406 172.351562 C 4048.191406 172.351562 4053.941406 173.480469 4059.179688 175.71875 C 4064.421875 177.96875 4068.339844 180.921875 4070.949219 184.558594 C 4073.550781 188.210938 4075.371094 192.539062 4076.421875 197.550781 C 4077.070312 200.808594 4077.390625 206.5 4077.390625 214.640625 L 4077.390625 278.410156 L 4059.808594 278.410156 L 4059.808594 215.320312 C 4059.808594 208.160156 4059.128906 202.808594 4057.761719 199.261719 C 4056.398438 195.710938 4053.96875 192.878906 4050.488281 190.761719 C 4047 188.648438 4042.921875 187.589844 4038.230469 187.589844 C 4030.75 187.589844 4024.28125 189.96875 4018.851562 194.71875 C 4013.410156 199.46875 4010.691406 208.488281 4010.691406 221.769531 L 4010.691406 278.410156 L 3993.121094 278.410156 "/>
<path fill-rule="nonzero" fill="rgb(12.860107%, 11.213684%, 11.195374%)" fill-opacity="1" d="M 4097.308594 247.449219 L 4114.699219 244.71875 C 4115.671875 251.691406 4118.390625 257.019531 4122.851562 260.730469 C 4127.308594 264.441406 4133.539062 266.300781 4141.550781 266.300781 C 4149.628906 266.300781 4155.621094 264.660156 4159.519531 261.371094 C 4163.429688 258.078125 4165.378906 254.21875 4165.378906 249.800781 C 4165.378906 245.828125 4163.660156 242.699219 4160.210938 240.421875 C 4157.800781 238.859375 4151.808594 236.871094 4142.238281 234.460938 C 4129.351562 231.210938 4120.410156 228.390625 4115.429688 226.019531 C 4110.449219 223.640625 4106.671875 220.351562 4104.101562 216.148438 C 4101.53125 211.949219 4100.238281 207.308594 4100.238281 202.238281 C 4100.238281 197.609375 4101.300781 193.339844 4103.421875 189.398438 C 4105.53125 185.460938 4108.410156 182.191406 4112.058594 179.578125 C 4114.789062 177.558594 4118.519531 175.859375 4123.238281 174.449219 C 4127.960938 173.058594 4133.019531 172.351562 4138.429688 172.351562 C 4146.570312 172.351562 4153.710938 173.53125 4159.859375 175.871094 C 4166.019531 178.210938 4170.558594 181.390625 4173.488281 185.390625 C 4176.421875 189.398438 4178.429688 194.75 4179.539062 201.460938 L 4162.351562 203.800781 C 4161.570312 198.460938 4159.308594 194.289062 4155.570312 191.300781 C 4151.820312 188.308594 4146.53125 186.808594 4139.699219 186.808594 C 4131.621094 186.808594 4125.859375 188.140625 4122.410156 190.808594 C 4118.960938 193.480469 4117.238281 196.609375 4117.238281 200.191406 C 4117.238281 202.46875 4117.949219 204.519531 4119.378906 206.339844 C 4120.820312 208.230469 4123.058594 209.789062 4126.121094 211.03125 C 4127.878906 211.679688 4133.058594 213.171875 4141.648438 215.519531 C 4154.078125 218.839844 4162.761719 221.558594 4167.679688 223.671875 C 4172.589844 225.789062 4176.449219 228.859375 4179.25 232.898438 C 4182.050781 236.941406 4183.449219 241.949219 4183.449219 247.941406 C 4183.449219 253.800781 4181.738281 259.320312 4178.320312 264.488281 C 4174.898438 269.671875 4169.96875 273.671875 4163.53125 276.511719 C 4157.078125 279.339844 4149.789062 280.75 4141.648438 280.75 C 4128.171875 280.75 4117.898438 277.960938 4110.839844 272.351562 C 4103.78125 266.761719 4099.269531 258.460938 4097.308594 247.449219 "/>
<g clip-path="url(#clip-0)">
<g clip-path="url(#clip-1)">
<g clip-path="url(#clip-2)">
<path fill-rule="nonzero" fill="url(#radial-pattern-0)" d="M 1980.269531 4274.21875 L 1980.269531 4367.199219 L 3012.210938 4367.199219 L 3012.210938 4274.21875 Z M 1980.269531 4274.21875 "/>
</g>
</g>
</g>
<path fill-rule="nonzero" fill="rgb(12.860107%, 11.213684%, 11.195374%)" fill-opacity="1" d="M 3781.78125 2691.660156 C 3756.699219 2743.371094 3731.339844 2791.089844 3705.808594 2834.820312 C 3689.519531 2862.671875 3673.140625 2888.910156 3656.699219 2913.539062 C 3540.019531 3088.128906 3419.199219 3180.898438 3296.03125 3189.980469 C 3289.289062 3190.460938 3282.628906 3190.710938 3276.121094 3190.710938 C 3160.941406 3190.710938 3080.378906 3116.410156 3045.480469 3076.621094 C 3076 3066.378906 3106.21875 3053.441406 3136.210938 3037.769531 C 3168.621094 3067.511719 3222.441406 3103.378906 3290 3098.128906 C 3377.410156 3091.320312 3514.191406 3014.410156 3677.761719 2694.121094 C 3690.921875 2695.171875 3704.300781 2695.738281 3717.949219 2695.738281 C 3738.628906 2695.738281 3759.910156 2694.421875 3781.78125 2691.660156 "/>
<path fill-rule="nonzero" fill="rgb(12.860107%, 11.213684%, 11.195374%)" fill-opacity="1" d="M 901.335938 2984.558594 C 910.230469 2993.449219 922.054688 2998.351562 934.632812 2998.351562 C 947.207031 2998.351562 959.03125 2993.449219 967.925781 2984.558594 C 1149.578125 2802.898438 1249.628906 2561.378906 1249.628906 2304.46875 C 1249.621094 2047.570312 1149.578125 1806.039062 967.925781 1624.390625 C 959.03125 1615.5 947.210938 1610.601562 934.628906 1610.601562 C 922.054688 1610.601562 910.230469 1615.5 901.335938 1624.390625 C 882.976562 1642.75 882.976562 1672.621094 901.335938 1690.980469 C 1065.210938 1854.851562 1155.449219 2072.71875 1155.449219 2304.46875 C 1155.449219 2536.21875 1065.210938 2754.101562 901.335938 2917.96875 C 882.976562 2936.328125 882.976562 2966.199219 901.335938 2984.558594 "/>
<path fill-rule="nonzero" fill="rgb(12.860107%, 11.213684%, 11.195374%)" fill-opacity="1" d="M 734.242188 2817.460938 C 752.597656 2835.820312 782.472656 2835.820312 800.832031 2817.460938 C 937.855469 2680.441406 1013.320312 2498.25 1013.320312 2304.46875 C 1013.320312 2110.691406 937.855469 1928.511719 800.828125 1791.480469 C 791.9375 1782.589844 780.109375 1777.691406 767.535156 1777.691406 C 754.957031 1777.691406 743.132812 1782.589844 734.238281 1791.480469 C 715.882812 1809.839844 715.882812 1839.710938 734.238281 1858.070312 C 853.476562 1977.308594 919.144531 2135.851562 919.144531 2304.46875 C 919.144531 2473.101562 853.476562 2631.628906 734.238281 2750.871094 C 715.882812 2769.230469 715.882812 2799.101562 734.242188 2817.460938 "/>
<path fill-rule="nonzero" fill="rgb(12.860107%, 11.213684%, 11.195374%)" fill-opacity="1" d="M 633.734375 2650.359375 C 726.125 2557.96875 777.007812 2435.128906 777.007812 2304.46875 C 777.007812 2173.808594 726.125 2050.96875 633.730469 1958.578125 C 624.839844 1949.691406 613.015625 1944.789062 600.4375 1944.789062 C 587.859375 1944.789062 576.035156 1949.691406 567.144531 1958.578125 C 548.78125 1976.941406 548.78125 2006.808594 567.144531 2025.171875 C 641.746094 2099.769531 682.835938 2198.960938 682.835938 2304.46875 C 682.835938 2409.980469 641.75 2509.171875 567.144531 2583.78125 C 548.785156 2602.128906 548.785156 2632.011719 567.144531 2650.371094 C 585.503906 2668.71875 615.375 2668.71875 633.734375 2650.359375 "/>
<path fill-rule="nonzero" fill="rgb(12.860107%, 11.213684%, 11.195374%)" fill-opacity="1" d="M 466.632812 2483.269531 C 515.085938 2434.820312 540.695312 2372.988281 540.695312 2304.46875 C 540.695312 2235.949219 515.085938 2174.128906 466.636719 2125.679688 C 457.742188 2116.78125 445.917969 2111.890625 433.339844 2111.890625 C 420.765625 2111.890625 408.941406 2116.78125 400.046875 2125.671875 C 381.6875 2144.03125 381.6875 2173.910156 400.046875 2192.269531 C 430.886719 2223.109375 446.523438 2260.859375 446.523438 2304.46875 C 446.523438 2348.078125 430.886719 2385.828125 400.050781 2416.671875 L 400.046875 2416.671875 C 391.152344 2425.570312 386.253906 2437.390625 386.253906 2449.96875 C 386.253906 2462.550781 391.152344 2474.371094 400.046875 2483.261719 C 408.9375 2492.160156 420.761719 2497.058594 433.339844 2497.058594 C 445.917969 2497.058594 457.742188 2492.160156 466.632812 2483.269531 "/>
<path fill-rule="nonzero" fill="rgb(12.860107%, 11.213684%, 11.195374%)" fill-opacity="1" d="M 3921.578125 2655.269531 C 3872.109375 2674.621094 3825.699219 2686.140625 3781.78125 2691.660156 C 3759.910156 2694.421875 3738.628906 2695.738281 3717.949219 2695.738281 C 3704.300781 2695.738281 3690.921875 2695.171875 3677.761719 2694.121094 C 3622.371094 2689.738281 3571.160156 2676.738281 3522.921875 2659.871094 C 3492.671875 2649.300781 3463.621094 2637.210938 3435.390625 2624.800781 C 3420.238281 2618.160156 3405.339844 2611.421875 3390.671875 2604.738281 C 3336.921875 2580.390625 3286.128906 2557.410156 3235.148438 2544.179688 C 3234.980469 2544.148438 3234.828125 2544.101562 3234.679688 2544.050781 C 3206.398438 2536.761719 3183.121094 2529.5 3162.570312 2523.109375 C 3155.628906 2520.949219 3149.070312 2518.910156 3142.710938 2516.988281 C 3095.078125 2502.609375 3061.800781 2496.070312 2994.839844 2507.789062 C 2912.800781 2522.179688 2785.300781 2563 2541.191406 2653.089844 C 2538.949219 2653.910156 2536.738281 2654.730469 2534.480469 2655.570312 C 2527.730469 2658.078125 2521.039062 2660.46875 2514.359375 2662.808594 C 2490.410156 2671.191406 2467.03125 2678.511719 2444.191406 2684.820312 C 2436.851562 2686.839844 2429.550781 2688.75 2422.328125 2690.570312 C 2361.488281 2705.808594 2304.691406 2713.421875 2252.109375 2713.421875 C 2167.820312 2713.421875 2094.308594 2693.851562 2032.199219 2654.699219 C 1871.878906 2553.628906 1852.460938 2361.320312 1851.679688 2353.179688 C 1849.71875 2331.648438 1862.949219 2311.679688 1883.550781 2305.109375 L 2422.328125 2133.449219 L 2444.191406 2126.488281 L 2514.359375 2104.128906 L 2541.191406 2095.589844 L 3163.179688 1897.371094 C 3187.398438 1889.679688 3213.289062 1903.039062 3221.019531 1927.238281 C 3228.730469 1951.46875 3215.351562 1977.359375 3191.148438 1985.070312 L 2541.191406 2192.171875 L 2514.359375 2200.71875 L 2444.191406 2223.078125 L 2422.328125 2230.03125 L 1950.128906 2380.488281 C 1962.628906 2431.140625 1996.28125 2523.628906 2082.011719 2577.28125 C 2165.210938 2629.378906 2279.449219 2635.398438 2422.328125 2595.429688 C 2429.539062 2593.398438 2436.828125 2591.25 2444.191406 2589.011719 C 2463.171875 2583.191406 2482.621094 2576.628906 2502.570312 2569.25 C 2506.539062 2567.78125 2510.46875 2566.339844 2514.359375 2564.910156 C 2523.460938 2561.539062 2532.390625 2558.269531 2541.191406 2555.039062 C 2770.429688 2470.980469 2894.859375 2431.878906 2978.96875 2417.148438 C 3076.769531 2400 3126.730469 2415.558594 3189.929688 2435.261719 C 3209.460938 2441.328125 3231.601562 2448.21875 3257.660156 2454.960938 C 3316.511719 2470.128906 3373.53125 2495.949219 3428.628906 2520.921875 C 3567.78125 2583.921875 3699.179688 2643.460938 3888.03125 2569.550781 C 3911.71875 2560.308594 3938.410156 2572 3947.660156 2595.648438 C 3956.941406 2619.289062 3945.25 2646.019531 3921.578125 2655.269531 "/>
<path fill-rule="nonzero" fill="rgb(12.860107%, 11.213684%, 11.195374%)" fill-opacity="1" d="M 3235.148438 2544.179688 C 3095.53125 2764.289062 2893.910156 2821.859375 2747.171875 2830.859375 C 2731.28125 2831.828125 2715.691406 2832.238281 2700.558594 2832.238281 C 2638.640625 2832.238281 2583.589844 2824.921875 2541.191406 2816.660156 L 2541.191406 2722.53125 C 2589.019531 2733.070312 2662.421875 2744.191406 2744.558594 2738.808594 C 2914.53125 2727.578125 3048.21875 2653.011719 3142.710938 2516.988281 C 3149.070312 2518.910156 3155.628906 2520.949219 3162.570312 2523.109375 C 3183.121094 2529.5 3206.398438 2536.761719 3234.679688 2544.050781 C 3234.828125 2544.101562 3234.980469 2544.148438 3235.148438 2544.179688 "/>
<path fill-rule="nonzero" fill="rgb(12.860107%, 11.213684%, 11.195374%)" fill-opacity="1" d="M 3522.921875 2659.871094 C 3400.691406 2840.691406 3271.289062 2967.03125 3136.210938 3037.769531 C 3106.21875 3053.441406 3076 3066.378906 3045.480469 3076.621094 C 3001.628906 3091.289062 2957.21875 3100.300781 2912.339844 3103.601562 C 2899.980469 3104.5 2887.53125 3104.949219 2875.089844 3104.949219 C 2770.53125 3104.949219 2664.578125 3073.058594 2566.460938 3011.75 C 2557.628906 3006.230469 2549.199219 3000.691406 2541.191406 2995.171875 L 2541.191406 2879.269531 C 2560.410156 2895.75 2586.359375 2915.871094 2617.921875 2935.351562 C 2711.859375 2993.421875 2809 3019.109375 2906.53125 3011.75 C 3089.578125 2997.929688 3267.339844 2867.800781 3435.390625 2624.800781 C 3463.621094 2637.210938 3492.671875 2649.300781 3522.921875 2659.871094 "/>
<path fill-rule="nonzero" fill="rgb(12.860107%, 11.213684%, 11.195374%)" fill-opacity="1" d="M 4665.929688 1839.019531 L 4665.929688 2593.601562 C 4665.929688 2611.78125 4655.210938 2628.261719 4638.589844 2635.648438 C 4551.101562 2674.519531 4479.640625 2728.75 4410.539062 2781.148438 C 4306.710938 2859.941406 4199.359375 2941.371094 4042.820312 2965.570312 C 4004.519531 2971.519531 3968.179688 2974.019531 3934.179688 2974.019531 C 3797.191406 2974.019531 3697.589844 2933.539062 3656.699219 2913.539062 C 3673.140625 2888.910156 3689.519531 2862.671875 3705.808594 2834.820312 C 3752.828125 2856.109375 3871.960938 2898.890625 4028.75 2874.640625 C 4162.28125 2853.96875 4255.851562 2782.988281 4354.929688 2707.851562 C 4421.191406 2657.558594 4489.519531 2605.75 4573.898438 2564.320312 L 4573.898438 1885.210938 C 4477.070312 1882.921875 4242.019531 1864.441406 3921.050781 1752.570312 C 3905.691406 1747.25 3889.769531 1741.628906 3873.25 1735.828125 C 3594.191406 1637.761719 3172.449219 1489.53125 2824.699219 1578.089844 C 2715.320312 1605.949219 2625.871094 1665.289062 2541.191406 1751.75 L 2541.191406 1626.171875 C 2622.238281 1557.921875 2707.78125 1512.898438 2801.988281 1488.910156 C 2968.140625 1446.601562 3161.039062 1449.179688 3391.738281 1496.839844 C 3583.730469 1536.511719 3761.199219 1598.910156 3903.769531 1649.03125 C 3920.191406 1654.800781 3936.070312 1660.371094 3951.320312 1665.691406 C 4350.378906 1804.730469 4614.890625 1793.191406 4617.519531 1793.078125 C 4630.160156 1792.441406 4642.449219 1796.96875 4651.578125 1805.691406 C 4660.730469 1814.371094 4665.929688 1826.410156 4665.929688 1839.019531 "/>
<path fill-rule="nonzero" fill="rgb(12.860107%, 11.213684%, 11.195374%)" fill-opacity="1" d="M 2541.191406 1551.261719 L 2541.191406 2095.589844 L 2514.359375 2104.128906 L 2444.191406 2126.488281 L 2444.191406 1551.261719 C 2444.191406 1495.429688 2398.761719 1450.011719 2342.941406 1450.011719 L 1583 1450.011719 C 1527.179688 1450.011719 1481.75 1495.429688 1481.75 1551.261719 L 1481.75 3107.308594 C 1481.75 3163.140625 1527.179688 3208.558594 1583 3208.558594 L 2342.941406 3208.558594 C 2398.761719 3208.558594 2444.191406 3163.140625 2444.191406 3107.308594 L 2444.191406 2684.820312 C 2467.03125 2678.511719 2490.410156 2671.191406 2514.359375 2662.808594 C 2521.039062 2660.46875 2527.730469 2658.078125 2534.480469 2655.570312 C 2536.738281 2654.730469 2538.949219 2653.910156 2541.191406 2653.089844 L 2541.191406 3107.308594 C 2541.191406 3216.621094 2452.25 3305.558594 2342.941406 3305.558594 L 1583 3305.558594 C 1473.679688 3305.558594 1384.75 3216.621094 1384.75 3107.308594 L 1384.75 1551.261719 C 1384.75 1441.949219 1473.679688 1353.011719 1583 1353.011719 L 2342.941406 1353.011719 C 2452.25 1353.011719 2541.191406 1441.949219 2541.191406 1551.261719 "/>
</svg>
